<svg xmlns:xlink="http://www.w3.org/1999/xlink" height="100%" id="svg_root"
    transform="rotate(0 460.076,265.625)" version="1.1" viewBox="0 0 902.1098 520.8333" width="100%"
    xmlns="http://www.w3.org/2000/svg">
    <g id="svg_g">
        <path style="fill:#ff0000" class="hex-grid-edge-left-top"
            d="M460.076,265.625 L0,260.4167 451.0549,0 z" id="hex_grid_edge_left_top" />
        <path style="fill:#ff0000" class="hex-grid-edge-right-bottom"
            d="M460.076,265.625 L902.1098,260.4167 451.0549,520.8333 z" id="hex_grid_edge_right_bottom" />
        <path style="fill:#0000ff" class="hex-grid-edge-left-bottom"
            d="M460.076,265.625 L0,260.4167 451.0549,520.8333 z" id="hex_grid_edge_left_bottom" />
        <path style="fill:#0000ff" class="hex-grid-edge-right-top"
            d="M460.076,265.625 L902.1098,260.4167 451.0549,0 z" id="hex_grid_edge_right_top" />
        <path
            style="stroke:#aaa;stroke-width:1;fill:#ffffff"
            class="hex-hexagon" d="M433.0127,72.9167 l36.0844,0 18.0422,-31.2499 -18.0421,-31.2499 -36.0843,0 -18.0421,31.25 z" id="hex_8_1" />
        <path
            style="stroke:#aaa;stroke-width:1;fill:#ffffff"
            class="hex-hexagon" d="M378.8861,104.1667 l36.0844,0 18.0422,-31.2499 -18.0421,-31.2499 -36.0843,0 -18.0421,31.25 z" id="hex_7_1" />
        <path
            style="stroke:#aaa;stroke-width:1;fill:#ffffff"
            class="hex-hexagon" d="M324.7595,135.4167 l36.0844,0 18.0422,-31.2499 -18.0421,-31.2499 -36.0843,0 -18.0421,31.25 z" id="hex_6_1" />
        <path
            style="stroke:#aaa;stroke-width:1;fill:#ffffff"
            class="hex-hexagon" d="M270.6329,166.6667 l36.0844,0 18.0422,-31.2499 -18.0421,-31.2499 -36.0843,0 -18.0421,31.25 z" id="hex_5_1" />
        <path
            style="stroke:#aaa;stroke-width:1;fill:#ffffff"
            class="hex-hexagon" d="M216.5064,197.9167 l36.0844,0 18.0422,-31.2499 -18.0421,-31.2499 -36.0843,0 -18.0421,31.25 z" id="hex_4_1" />
        <path
            style="stroke:#aaa;stroke-width:1;fill:#ffffff"
            class="hex-hexagon" d="M162.3798,229.1667 l36.0844,0 18.0422,-31.2499 -18.0421,-31.2499 -36.0843,0 -18.0421,31.25 z" id="hex_3_1" />
        <path
            style="stroke:#aaa;stroke-width:1;fill:#ffffff"
            class="hex-hexagon" d="M108.2532,260.4167 l36.0844,0 18.0422,-31.2499 -18.0421,-31.2499 -36.0843,0 -18.0421,31.25 z" id="hex_2_1" />
        <path
            style="stroke:#aaa;stroke-width:1;fill:#ffffff"
            class="hex-hexagon" d="M54.1266,291.6667 l36.0844,0 18.0422,-31.2499 -18.0421,-31.2499 -36.0843,0 -18.0421,31.25 z" id="hex_1_1" />
        <path
            style="stroke:#aaa;stroke-width:1;fill:#ffffff"
            class="hex-hexagon" d="M487.1393,104.1667 l36.0844,0 18.0422,-31.2499 -18.0421,-31.2499 -36.0843,0 -18.0421,31.25 z" id="hex_8_2" />
        <path
            style="stroke:#aaa;stroke-width:1;fill:#ffffff"
            class="hex-hexagon" d="M433.0127,135.4167 l36.0844,0 18.0422,-31.2499 -18.0421,-31.2499 -36.0843,0 -18.0421,31.25 z" id="hex_7_2" />
        <path
            style="stroke:#aaa;stroke-width:1;fill:#ffffff"
            class="hex-hexagon" d="M378.8861,166.6667 l36.0844,0 18.0422,-31.2499 -18.0421,-31.2499 -36.0843,0 -18.0421,31.25 z" id="hex_6_2" />
        <path
            style="stroke:#aaa;stroke-width:1;fill:#ffffff"
            class="hex-hexagon" d="M324.7595,197.9167 l36.0844,0 18.0422,-31.2499 -18.0421,-31.2499 -36.0843,0 -18.0421,31.25 z" id="hex_5_2" />
        <path
            style="stroke:#aaa;stroke-width:1;fill:#ffffff"
            class="hex-hexagon" d="M270.6329,229.1667 l36.0844,0 18.0422,-31.2499 -18.0421,-31.2499 -36.0843,0 -18.0421,31.25 z" id="hex_4_2" />
        <path
            style="stroke:#aaa;stroke-width:1;fill:#ffffff"
            class="hex-hexagon" d="M216.5064,260.4167 l36.0844,0 18.0422,-31.2499 -18.0421,-31.2499 -36.0843,0 -18.0421,31.25 z" id="hex_3_2" />
        <path
            style="stroke:#aaa;stroke-width:1;fill:#ffffff"
            class="hex-hexagon" d="M162.3798,291.6667 l36.0844,0 18.0422,-31.2499 -18.0421,-31.2499 -36.0843,0 -18.0421,31.25 z" id="hex_2_2" />
        <path
            style="stroke:#aaa;stroke-width:1;fill:#ffffff"
            class="hex-hexagon" d="M108.2532,322.9167 l36.0844,0 18.0422,-31.2499 -18.0421,-31.2499 -36.0843,0 -18.0421,31.25 z" id="hex_1_2" />
        <path
            style="stroke:#aaa;stroke-width:1;fill:#ffffff"
            class="hex-hexagon" d="M541.2659,135.4167 l36.0844,0 18.0422,-31.2499 -18.0421,-31.2499 -36.0843,0 -18.0421,31.25 z" id="hex_8_3" />
        <path
            style="stroke:#aaa;stroke-width:1;fill:#ffffff"
            class="hex-hexagon" d="M487.1393,166.6667 l36.0844,0 18.0422,-31.2499 -18.0421,-31.2499 -36.0843,0 -18.0421,31.25 z" id="hex_7_3" />
        <path
            style="stroke:#aaa;stroke-width:1;fill:#ffffff"
            class="hex-hexagon" d="M433.0127,197.9167 l36.0844,0 18.0422,-31.2499 -18.0421,-31.2499 -36.0843,0 -18.0421,31.25 z" id="hex_6_3" />
        <path
            style="stroke:#aaa;stroke-width:1;fill:#ffffff"
            class="hex-hexagon" d="M378.8861,229.1667 l36.0844,0 18.0422,-31.2499 -18.0421,-31.2499 -36.0843,0 -18.0421,31.25 z" id="hex_5_3" />
        <path
            style="stroke:#aaa;stroke-width:1;fill:#ffffff"
            class="hex-hexagon" d="M324.7595,260.4167 l36.0844,0 18.0422,-31.2499 -18.0421,-31.2499 -36.0843,0 -18.0421,31.25 z" id="hex_4_3" />
        <path
            style="stroke:#aaa;stroke-width:1;fill:#ffffff"
            class="hex-hexagon" d="M270.6329,291.6667 l36.0844,0 18.0422,-31.2499 -18.0421,-31.2499 -36.0843,0 -18.0421,31.25 z" id="hex_3_3" />
        <path
            style="stroke:#aaa;stroke-width:1;fill:#ffffff"
            class="hex-hexagon" d="M216.5064,322.9167 l36.0844,0 18.0422,-31.2499 -18.0421,-31.2499 -36.0843,0 -18.0421,31.25 z" id="hex_2_3" />
        <path
            style="stroke:#aaa;stroke-width:1;fill:#ffffff"
            class="hex-hexagon" d="M162.3798,354.1667 l36.0844,0 18.0422,-31.2499 -18.0421,-31.2499 -36.0843,0 -18.0421,31.25 z" id="hex_1_3" />
        <path
            style="stroke:#aaa;stroke-width:1;fill:#ffffff"
            class="hex-hexagon" d="M595.3925,166.6667 l36.0844,0 18.0422,-31.2499 -18.0421,-31.2499 -36.0843,0 -18.0421,31.25 z" id="hex_8_4" />
        <path
            style="stroke:#aaa;stroke-width:1;fill:#ffffff"
            class="hex-hexagon" d="M541.2659,197.9167 l36.0844,0 18.0422,-31.2499 -18.0421,-31.2499 -36.0843,0 -18.0421,31.25 z" id="hex_7_4" />
        <path
            style="stroke:#aaa;stroke-width:1;fill:#ffffff"
            class="hex-hexagon" d="M487.1393,229.1667 l36.0844,0 18.0422,-31.2499 -18.0421,-31.2499 -36.0843,0 -18.0421,31.25 z" id="hex_6_4" />
        <path
            style="stroke:#aaa;stroke-width:1;fill:#ffffff"
            class="hex-hexagon" d="M433.0127,260.4167 l36.0844,0 18.0422,-31.2499 -18.0421,-31.2499 -36.0843,0 -18.0421,31.25 z" id="hex_5_4" />
        <path
            style="stroke:#aaa;stroke-width:1;fill:#ffffff"
            class="hex-hexagon" d="M378.8861,291.6667 l36.0844,0 18.0422,-31.2499 -18.0421,-31.2499 -36.0843,0 -18.0421,31.25 z" id="hex_4_4" />
        <path
            style="stroke:#aaa;stroke-width:1;fill:#ffffff"
            class="hex-hexagon" d="M324.7595,322.9167 l36.0844,0 18.0422,-31.2499 -18.0421,-31.2499 -36.0843,0 -18.0421,31.25 z" id="hex_3_4" />
        <path
            style="stroke:#aaa;stroke-width:1;fill:#ffffff"
            class="hex-hexagon" d="M270.6329,354.1667 l36.0844,0 18.0422,-31.2499 -18.0421,-31.2499 -36.0843,0 -18.0421,31.25 z" id="hex_2_4" />
        <path
            style="stroke:#aaa;stroke-width:1;fill:#ffffff"
            class="hex-hexagon" d="M216.5064,385.4167 l36.0844,0 18.0422,-31.2499 -18.0421,-31.2499 -36.0843,0 -18.0421,31.25 z" id="hex_1_4" />
        <path
            style="stroke:#aaa;stroke-width:1;fill:#ffffff"
            class="hex-hexagon" d="M649.5191,197.9167 l36.0844,0 18.0422,-31.2499 -18.0421,-31.2499 -36.0843,0 -18.0421,31.25 z" id="hex_8_5" />
        <path
            style="stroke:#aaa;stroke-width:1;fill:#ffffff"
            class="hex-hexagon" d="M595.3925,229.1667 l36.0844,0 18.0422,-31.2499 -18.0421,-31.2499 -36.0843,0 -18.0421,31.25 z" id="hex_7_5" />
        <path
            style="stroke:#aaa;stroke-width:1;fill:#ffffff"
            class="hex-hexagon" d="M541.2659,260.4167 l36.0844,0 18.0422,-31.2499 -18.0421,-31.2499 -36.0843,0 -18.0421,31.25 z" id="hex_6_5" />
        <path
            style="stroke:#aaa;stroke-width:1;fill:#ffffff"
            class="hex-hexagon" d="M487.1393,291.6667 l36.0844,0 18.0422,-31.2499 -18.0421,-31.2499 -36.0843,0 -18.0421,31.25 z" id="hex_5_5" />
        <path
            style="stroke:#aaa;stroke-width:1;fill:#ffffff"
            class="hex-hexagon" d="M433.0127,322.9167 l36.0844,0 18.0422,-31.2499 -18.0421,-31.2499 -36.0843,0 -18.0421,31.25 z" id="hex_4_5" />
        <path
            style="stroke:#aaa;stroke-width:1;fill:#ffffff"
            class="hex-hexagon" d="M378.8861,354.1667 l36.0844,0 18.0422,-31.2499 -18.0421,-31.2499 -36.0843,0 -18.0421,31.25 z" id="hex_3_5" />
        <path
            style="stroke:#aaa;stroke-width:1;fill:#ffffff"
            class="hex-hexagon" d="M324.7595,385.4167 l36.0844,0 18.0422,-31.2499 -18.0421,-31.2499 -36.0843,0 -18.0421,31.25 z" id="hex_2_5" />
        <path
            style="stroke:#aaa;stroke-width:1;fill:#ffffff"
            class="hex-hexagon" d="M270.6329,416.6667 l36.0844,0 18.0422,-31.2499 -18.0421,-31.2499 -36.0843,0 -18.0421,31.25 z" id="hex_1_5" />
        <path
            style="stroke:#aaa;stroke-width:1;fill:#ffffff"
            class="hex-hexagon" d="M703.6456,229.1667 l36.0844,0 18.0422,-31.2499 -18.0421,-31.2499 -36.0843,0 -18.0421,31.25 z" id="hex_8_6" />
        <path
            style="stroke:#aaa;stroke-width:1;fill:#ffffff"
            class="hex-hexagon" d="M649.5191,260.4167 l36.0844,0 18.0422,-31.2499 -18.0421,-31.2499 -36.0843,0 -18.0421,31.25 z" id="hex_7_6" />
        <path
            style="stroke:#aaa;stroke-width:1;fill:#ffffff"
            class="hex-hexagon" d="M595.3925,291.6667 l36.0844,0 18.0422,-31.2499 -18.0421,-31.2499 -36.0843,0 -18.0421,31.25 z" id="hex_6_6" />
        <path
            style="stroke:#aaa;stroke-width:1;fill:#ffffff"
            class="hex-hexagon" d="M541.2659,322.9167 l36.0844,0 18.0422,-31.2499 -18.0421,-31.2499 -36.0843,0 -18.0421,31.25 z" id="hex_5_6" />
        <path
            style="stroke:#aaa;stroke-width:1;fill:#ffffff"
            class="hex-hexagon" d="M487.1393,354.1667 l36.0844,0 18.0422,-31.2499 -18.0421,-31.2499 -36.0843,0 -18.0421,31.25 z" id="hex_4_6" />
        <path
            style="stroke:#aaa;stroke-width:1;fill:#ffffff"
            class="hex-hexagon" d="M433.0127,385.4167 l36.0844,0 18.0422,-31.2499 -18.0421,-31.2499 -36.0843,0 -18.0421,31.25 z" id="hex_3_6" />
        <path
            style="stroke:#aaa;stroke-width:1;fill:#ffffff"
            class="hex-hexagon" d="M378.8861,416.6667 l36.0844,0 18.0422,-31.2499 -18.0421,-31.2499 -36.0843,0 -18.0421,31.25 z" id="hex_2_6" />
        <path
            style="stroke:#aaa;stroke-width:1;fill:#ffffff"
            class="hex-hexagon" d="M324.7595,447.9167 l36.0844,0 18.0422,-31.2499 -18.0421,-31.2499 -36.0843,0 -18.0421,31.25 z" id="hex_1_6" />
        <path
            style="stroke:#aaa;stroke-width:1;fill:#ffffff"
            class="hex-hexagon" d="M757.7722,260.4167 l36.0844,0 18.0422,-31.2499 -18.0421,-31.2499 -36.0843,0 -18.0421,31.25 z" id="hex_8_7" />
        <path
            style="stroke:#aaa;stroke-width:1;fill:#ffffff"
            class="hex-hexagon" d="M703.6456,291.6667 l36.0844,0 18.0422,-31.2499 -18.0421,-31.2499 -36.0843,0 -18.0421,31.25 z" id="hex_7_7" />
        <path
            style="stroke:#aaa;stroke-width:1;fill:#ffffff"
            class="hex-hexagon" d="M649.5191,322.9167 l36.0844,0 18.0422,-31.2499 -18.0421,-31.2499 -36.0843,0 -18.0421,31.25 z" id="hex_6_7" />
        <path
            style="stroke:#aaa;stroke-width:1;fill:#ffffff"
            class="hex-hexagon" d="M595.3925,354.1667 l36.0844,0 18.0422,-31.2499 -18.0421,-31.2499 -36.0843,0 -18.0421,31.25 z" id="hex_5_7" />
        <path
            style="stroke:#aaa;stroke-width:1;fill:#ffffff"
            class="hex-hexagon" d="M541.2659,385.4167 l36.0844,0 18.0422,-31.2499 -18.0421,-31.2499 -36.0843,0 -18.0421,31.25 z" id="hex_4_7" />
        <path
            style="stroke:#aaa;stroke-width:1;fill:#ffffff"
            class="hex-hexagon" d="M487.1393,416.6667 l36.0844,0 18.0422,-31.2499 -18.0421,-31.2499 -36.0843,0 -18.0421,31.25 z" id="hex_3_7" />
        <path
            style="stroke:#aaa;stroke-width:1;fill:#ffffff"
            class="hex-hexagon" d="M433.0127,447.9167 l36.0844,0 18.0422,-31.2499 -18.0421,-31.2499 -36.0843,0 -18.0421,31.25 z" id="hex_2_7" />
        <path
            style="stroke:#aaa;stroke-width:1;fill:#ffffff"
            class="hex-hexagon" d="M378.8861,479.1667 l36.0844,0 18.0422,-31.2499 -18.0421,-31.2499 -36.0843,0 -18.0421,31.25 z" id="hex_1_7" />
        <path
            style="stroke:#aaa;stroke-width:1;fill:#ffffff"
            class="hex-hexagon" d="M811.8988,291.6667 l36.0844,0 18.0422,-31.2499 -18.0421,-31.2499 -36.0843,0 -18.0421,31.25 z" id="hex_8_8" />
        <path
            style="stroke:#aaa;stroke-width:1;fill:#ffffff"
            class="hex-hexagon" d="M757.7722,322.9167 l36.0844,0 18.0422,-31.2499 -18.0421,-31.2499 -36.0843,0 -18.0421,31.25 z" id="hex_7_8" />
        <path
            style="stroke:#aaa;stroke-width:1;fill:#ffffff"
            class="hex-hexagon" d="M703.6456,354.1667 l36.0844,0 18.0422,-31.2499 -18.0421,-31.2499 -36.0843,0 -18.0421,31.25 z" id="hex_6_8" />
        <path
            style="stroke:#aaa;stroke-width:1;fill:#ffffff"
            class="hex-hexagon" d="M649.5191,385.4167 l36.0844,0 18.0422,-31.2499 -18.0421,-31.2499 -36.0843,0 -18.0421,31.25 z" id="hex_5_8" />
        <path
            style="stroke:#aaa;stroke-width:1;fill:#ffffff"
            class="hex-hexagon" d="M595.3925,416.6667 l36.0844,0 18.0422,-31.2499 -18.0421,-31.2499 -36.0843,0 -18.0421,31.25 z" id="hex_4_8" />
        <path
            style="stroke:#aaa;stroke-width:1;fill:#ffffff"
            class="hex-hexagon" d="M541.2659,447.9167 l36.0844,0 18.0422,-31.2499 -18.0421,-31.2499 -36.0843,0 -18.0421,31.25 z" id="hex_3_8" />
        <path
            style="stroke:#aaa;stroke-width:1;fill:#ffffff"
            class="hex-hexagon" d="M487.1393,479.1667 l36.0844,0 18.0422,-31.2499 -18.0421,-31.2499 -36.0843,0 -18.0421,31.25 z" id="hex_2_8" />
        <path
            style="stroke:#aaa;stroke-width:1;fill:#ffffff"
            class="hex-hexagon" d="M433.0127,510.4167 l36.0844,0 18.0422,-31.2499 -18.0421,-31.2499 -36.0843,0 -18.0421,31.25 z" id="hex_1_8" />
    </g>
    <script type="text/javascript" xlink:href="jquery.min.js"></script>
    <script type="text/javascript" xlink:href="svg.min.js"></script>
    <script type="text/javascript" xlink:href="app.js"></script>
</svg>