<svg xmlns="http://www.w3.org/2000/svg" xmlns:xlink="http://www.w3.org/1999/xlink" version="1.1" viewBox="0 0 907.2647 523.8095" transform="rotate(0 463.9422,267.8571)" id="svg_root" width="100%" height="100%"><g id="svg_g"><path d="M463.9422,267.8571 L0,261.9048 453.6324,0 z" style="fill:#ff0000" id="hex_grid_edge_left_top" class="hex-grid-edge-left-top" /><path d="M463.9422,267.8571 L907.2647,261.9048 453.6324,523.8095 z" style="fill:#ff0000" id="hex_grid_edge_right_bottom" class="hex-grid-edge-right-bottom" /><path d="M463.9422,267.8571 L0,261.9048 453.6324,523.8095 z" style="fill:#0000ff" id="hex_grid_edge_left_bottom" class="hex-grid-edge-left-bottom" /><path d="M463.9422,267.8571 L907.2647,261.9048 453.6324,0 z" style="fill:#0000ff" id="hex_grid_edge_right_top" class="hex-grid-edge-right-top" /><path d="M433.0127,83.3333 l41.2393,0 20.6197,-35.7142 -20.6196,-35.7142 -41.2392,0 -20.6196,35.7143 z" style="stroke:#aaa;stroke-width:1;fill:#ffffff" id="hex_6_0" class="hex-hexagon" /><path d="M371.1537,119.0476 l41.2393,0 20.6197,-35.7142 -20.6196,-35.7142 -41.2392,0 -20.6196,35.7143 z" style="stroke:#aaa;stroke-width:1;fill:#ffffff" id="hex_5_0" class="hex-hexagon" /><path d="M309.2948,154.7619 l41.2393,0 20.6197,-35.7142 -20.6196,-35.7142 -41.2392,0 -20.6196,35.7143 z" style="stroke:#aaa;stroke-width:1;fill:#ffffff" id="hex_4_0" class="hex-hexagon" /><path d="M247.4358,190.4762 l41.2393,0 20.6197,-35.7142 -20.6196,-35.7142 -41.2392,0 -20.6196,35.7143 z" style="stroke:#aaa;stroke-width:1;fill:#ffffff" id="hex_3_0" class="hex-hexagon" /><path d="M185.5769,226.1905 l41.2393,0 20.6197,-35.7142 -20.6196,-35.7142 -41.2392,0 -20.6196,35.7143 z" style="stroke:#aaa;stroke-width:1;fill:#ffffff" id="hex_2_0" class="hex-hexagon" /><path d="M123.7179,261.9048 l41.2393,0 20.6197,-35.7142 -20.6196,-35.7142 -41.2392,0 -20.6196,35.7143 z" style="stroke:#aaa;stroke-width:1;fill:#ffffff" id="hex_1_0" class="hex-hexagon" /><path d="M61.859,297.619 l41.2393,0 20.6197,-35.7142 -20.6196,-35.7142 -41.2392,0 -20.6196,35.7143 z" style="stroke:#aaa;stroke-width:1;fill:#ffffff" id="hex_0_0" class="hex-hexagon" /><path d="M494.8717,119.0476 l41.2393,0 20.6197,-35.7142 -20.6196,-35.7142 -41.2392,0 -20.6196,35.7143 z" style="stroke:#aaa;stroke-width:1;fill:#ffffff" id="hex_6_1" class="hex-hexagon" /><path d="M433.0127,154.7619 l41.2393,0 20.6197,-35.7142 -20.6196,-35.7142 -41.2392,0 -20.6196,35.7143 z" style="stroke:#aaa;stroke-width:1;fill:#ffffff" id="hex_5_1" class="hex-hexagon" /><path d="M371.1537,190.4762 l41.2393,0 20.6197,-35.7142 -20.6196,-35.7142 -41.2392,0 -20.6196,35.7143 z" style="stroke:#aaa;stroke-width:1;fill:#ffffff" id="hex_4_1" class="hex-hexagon" /><path d="M309.2948,226.1905 l41.2393,0 20.6197,-35.7142 -20.6196,-35.7142 -41.2392,0 -20.6196,35.7143 z" style="stroke:#aaa;stroke-width:1;fill:#ffffff" id="hex_3_1" class="hex-hexagon" /><path d="M247.4358,261.9048 l41.2393,0 20.6197,-35.7142 -20.6196,-35.7142 -41.2392,0 -20.6196,35.7143 z" style="stroke:#aaa;stroke-width:1;fill:#ffffff" id="hex_2_1" class="hex-hexagon" /><path d="M185.5769,297.619 l41.2393,0 20.6197,-35.7142 -20.6196,-35.7142 -41.2392,0 -20.6196,35.7143 z" style="stroke:#aaa;stroke-width:1;fill:#ffffff" id="hex_1_1" class="hex-hexagon" /><path d="M123.7179,333.3333 l41.2393,0 20.6197,-35.7142 -20.6196,-35.7142 -41.2392,0 -20.6196,35.7143 z" style="stroke:#aaa;stroke-width:1;fill:#ffffff" id="hex_0_1" class="hex-hexagon" /><path d="M556.7306,154.7619 l41.2393,0 20.6197,-35.7142 -20.6196,-35.7142 -41.2392,0 -20.6196,35.7143 z" style="stroke:#aaa;stroke-width:1;fill:#ffffff" id="hex_6_2" class="hex-hexagon" /><path d="M494.8717,190.4762 l41.2393,0 20.6197,-35.7142 -20.6196,-35.7142 -41.2392,0 -20.6196,35.7143 z" style="stroke:#aaa;stroke-width:1;fill:#ffffff" id="hex_5_2" class="hex-hexagon" /><path d="M433.0127,226.1905 l41.2393,0 20.6197,-35.7142 -20.6196,-35.7142 -41.2392,0 -20.6196,35.7143 z" style="stroke:#aaa;stroke-width:1;fill:#ffffff" id="hex_4_2" class="hex-hexagon" /><path d="M371.1537,261.9048 l41.2393,0 20.6197,-35.7142 -20.6196,-35.7142 -41.2392,0 -20.6196,35.7143 z" style="stroke:#aaa;stroke-width:1;fill:#ffffff" id="hex_3_2" class="hex-hexagon" /><path d="M309.2948,297.619 l41.2393,0 20.6197,-35.7142 -20.6196,-35.7142 -41.2392,0 -20.6196,35.7143 z" style="stroke:#aaa;stroke-width:1;fill:#ffffff" id="hex_2_2" class="hex-hexagon" /><path d="M247.4358,333.3333 l41.2393,0 20.6197,-35.7142 -20.6196,-35.7142 -41.2392,0 -20.6196,35.7143 z" style="stroke:#aaa;stroke-width:1;fill:#ffffff" id="hex_1_2" class="hex-hexagon" /><path d="M185.5769,369.0476 l41.2393,0 20.6197,-35.7142 -20.6196,-35.7142 -41.2392,0 -20.6196,35.7143 z" style="stroke:#aaa;stroke-width:1;fill:#ffffff" id="hex_0_2" class="hex-hexagon" /><path d="M618.5896,190.4762 l41.2393,0 20.6197,-35.7142 -20.6196,-35.7142 -41.2392,0 -20.6196,35.7143 z" style="stroke:#aaa;stroke-width:1;fill:#ffffff" id="hex_6_3" class="hex-hexagon" /><path d="M556.7306,226.1905 l41.2393,0 20.6197,-35.7142 -20.6196,-35.7142 -41.2392,0 -20.6196,35.7143 z" style="stroke:#aaa;stroke-width:1;fill:#ffffff" id="hex_5_3" class="hex-hexagon" /><path d="M494.8717,261.9048 l41.2393,0 20.6197,-35.7142 -20.6196,-35.7142 -41.2392,0 -20.6196,35.7143 z" style="stroke:#aaa;stroke-width:1;fill:#ffffff" id="hex_4_3" class="hex-hexagon" /><path d="M433.0127,297.619 l41.2393,0 20.6197,-35.7142 -20.6196,-35.7142 -41.2392,0 -20.6196,35.7143 z" style="stroke:#aaa;stroke-width:1;fill:#ffffff" id="hex_3_3" class="hex-hexagon" /><path d="M371.1537,333.3333 l41.2393,0 20.6197,-35.7142 -20.6196,-35.7142 -41.2392,0 -20.6196,35.7143 z" style="stroke:#aaa;stroke-width:1;fill:#ffffff" id="hex_2_3" class="hex-hexagon" /><path d="M309.2948,369.0476 l41.2393,0 20.6197,-35.7142 -20.6196,-35.7142 -41.2392,0 -20.6196,35.7143 z" style="stroke:#aaa;stroke-width:1;fill:#ffffff" id="hex_1_3" class="hex-hexagon" /><path d="M247.4358,404.7619 l41.2393,0 20.6197,-35.7142 -20.6196,-35.7142 -41.2392,0 -20.6196,35.7143 z" style="stroke:#aaa;stroke-width:1;fill:#ffffff" id="hex_0_3" class="hex-hexagon" /><path d="M680.4485,226.1905 l41.2393,0 20.6197,-35.7142 -20.6196,-35.7142 -41.2392,0 -20.6196,35.7143 z" style="stroke:#aaa;stroke-width:1;fill:#ffffff" id="hex_6_4" class="hex-hexagon" /><path d="M618.5896,261.9048 l41.2393,0 20.6197,-35.7142 -20.6196,-35.7142 -41.2392,0 -20.6196,35.7143 z" style="stroke:#aaa;stroke-width:1;fill:#ffffff" id="hex_5_4" class="hex-hexagon" /><path d="M556.7306,297.619 l41.2393,0 20.6197,-35.7142 -20.6196,-35.7142 -41.2392,0 -20.6196,35.7143 z" style="stroke:#aaa;stroke-width:1;fill:#ffffff" id="hex_4_4" class="hex-hexagon" /><path d="M494.8717,333.3333 l41.2393,0 20.6197,-35.7142 -20.6196,-35.7142 -41.2392,0 -20.6196,35.7143 z" style="stroke:#aaa;stroke-width:1;fill:#ffffff" id="hex_3_4" class="hex-hexagon" /><path d="M433.0127,369.0476 l41.2393,0 20.6197,-35.7142 -20.6196,-35.7142 -41.2392,0 -20.6196,35.7143 z" style="stroke:#aaa;stroke-width:1;fill:#ffffff" id="hex_2_4" class="hex-hexagon" /><path d="M371.1537,404.7619 l41.2393,0 20.6197,-35.7142 -20.6196,-35.7142 -41.2392,0 -20.6196,35.7143 z" style="stroke:#aaa;stroke-width:1;fill:#ffffff" id="hex_1_4" class="hex-hexagon" /><path d="M309.2948,440.4762 l41.2393,0 20.6197,-35.7142 -20.6196,-35.7142 -41.2392,0 -20.6196,35.7143 z" style="stroke:#aaa;stroke-width:1;fill:#ffffff" id="hex_0_4" class="hex-hexagon" /><path d="M742.3075,261.9048 l41.2393,0 20.6197,-35.7142 -20.6196,-35.7142 -41.2392,0 -20.6196,35.7143 z" style="stroke:#aaa;stroke-width:1;fill:#ffffff" id="hex_6_5" class="hex-hexagon" /><path d="M680.4485,297.619 l41.2393,0 20.6197,-35.7142 -20.6196,-35.7142 -41.2392,0 -20.6196,35.7143 z" style="stroke:#aaa;stroke-width:1;fill:#ffffff" id="hex_5_5" class="hex-hexagon" /><path d="M618.5896,333.3333 l41.2393,0 20.6197,-35.7142 -20.6196,-35.7142 -41.2392,0 -20.6196,35.7143 z" style="stroke:#aaa;stroke-width:1;fill:#ffffff" id="hex_4_5" class="hex-hexagon" /><path d="M556.7306,369.0476 l41.2393,0 20.6197,-35.7142 -20.6196,-35.7142 -41.2392,0 -20.6196,35.7143 z" style="stroke:#aaa;stroke-width:1;fill:#ffffff" id="hex_3_5" class="hex-hexagon" /><path d="M494.8717,404.7619 l41.2393,0 20.6197,-35.7142 -20.6196,-35.7142 -41.2392,0 -20.6196,35.7143 z" style="stroke:#aaa;stroke-width:1;fill:#ffffff" id="hex_2_5" class="hex-hexagon" /><path d="M433.0127,440.4762 l41.2393,0 20.6197,-35.7142 -20.6196,-35.7142 -41.2392,0 -20.6196,35.7143 z" style="stroke:#aaa;stroke-width:1;fill:#ffffff" id="hex_1_5" class="hex-hexagon" /><path d="M371.1537,476.1905 l41.2393,0 20.6197,-35.7142 -20.6196,-35.7142 -41.2392,0 -20.6196,35.7143 z" style="stroke:#aaa;stroke-width:1;fill:#ffffff" id="hex_0_5" class="hex-hexagon" /><path d="M804.1664,297.619 l41.2393,0 20.6197,-35.7142 -20.6196,-35.7142 -41.2392,0 -20.6196,35.7143 z" style="stroke:#aaa;stroke-width:1;fill:#ffffff" id="hex_6_6" class="hex-hexagon" /><path d="M742.3075,333.3333 l41.2393,0 20.6197,-35.7142 -20.6196,-35.7142 -41.2392,0 -20.6196,35.7143 z" style="stroke:#aaa;stroke-width:1;fill:#ffffff" id="hex_5_6" class="hex-hexagon" /><path d="M680.4485,369.0476 l41.2393,0 20.6197,-35.7142 -20.6196,-35.7142 -41.2392,0 -20.6196,35.7143 z" style="stroke:#aaa;stroke-width:1;fill:#ffffff" id="hex_4_6" class="hex-hexagon" /><path d="M618.5896,404.7619 l41.2393,0 20.6197,-35.7142 -20.6196,-35.7142 -41.2392,0 -20.6196,35.7143 z" style="stroke:#aaa;stroke-width:1;fill:#ffffff" id="hex_3_6" class="hex-hexagon" /><path d="M556.7306,440.4762 l41.2393,0 20.6197,-35.7142 -20.6196,-35.7142 -41.2392,0 -20.6196,35.7143 z" style="stroke:#aaa;stroke-width:1;fill:#ffffff" id="hex_2_6" class="hex-hexagon" /><path d="M494.8717,476.1905 l41.2393,0 20.6197,-35.7142 -20.6196,-35.7142 -41.2392,0 -20.6196,35.7143 z" style="stroke:#aaa;stroke-width:1;fill:#ffffff" id="hex_1_6" class="hex-hexagon" /><path d="M433.0127,511.9048 l41.2393,0 20.6197,-35.7142 -20.6196,-35.7142 -41.2392,0 -20.6196,35.7143 z" style="stroke:#aaa;stroke-width:1;fill:#ffffff" id="hex_0_6" class="hex-hexagon" /></g><script type="text/javascript" xlink:href="jquery.min.js"></script><script type="text/javascript" xlink:href="svg.min.js"></script><script type="text/javascript" xlink:href="app.js"></script></svg>