<svg xmlns="http://www.w3.org/2000/svg" xmlns:xlink="http://www.w3.org/1999/xlink" version="1.1" viewBox="0 0 866.0254 545.4545" id="svg_root" preserveAspectRatio="xMinYMin"><script type="text/javascript" xlink:href="jquery.min.js"></script><script type="text/javascript" xlink:href="svg.min.js"></script><script type="text/javascript" xlink:href="app.js"></script><g id="svg_g"><path d="M375,216.5064 L0,0 500,0 z" style="fill:#ff0000" id="hex_grid_edge_left_top" class="hex-grid-edge-left-top" /><path d="M375,216.5064 L750,433.0127 250,433.0127 z" style="fill:#ff0000" id="hex_grid_edge_right_bottom" class="hex-grid-edge-right-bottom" /><path d="M375,216.5064 L0,0 250,433.0127 z" style="fill:#0000ff" id="hex_grid_edge_left_bottom" class="hex-grid-edge-left-bottom" /><path d="M375,216.5064 L750,433.0127 500,0 z" style="fill:#0000ff" id="hex_grid_edge_right_top" class="hex-grid-edge-right-top" /><path d="M7.5758,39.3648 l45.4545,0 22.7273,-13.1215 -22.7272,-13.1215 -45.4544,0 -22.7272,13.1216 z" style="stroke:#aaa;stroke-width:1;fill:#ffffff" id="hex_11_1" class="hex-hexagon" /><path d="M46.9405,62.0921 l45.4545,0 22.7273,-13.1215 -22.7272,-13.1215 -45.4544,0 -22.7272,13.1216 z" style="stroke:#aaa;stroke-width:1;fill:#ffffff" id="hex_10_1" class="hex-hexagon" /><path d="M86.3053,84.8193 l45.4545,0 22.7273,-13.1215 -22.7272,-13.1215 -45.4544,0 -22.7272,13.1216 z" style="stroke:#aaa;stroke-width:1;fill:#ffffff" id="hex_9_1" class="hex-hexagon" /><path d="M125.6701,107.5466 l45.4545,0 22.7273,-13.1215 -22.7272,-13.1215 -45.4544,0 -22.7272,13.1216 z" style="stroke:#aaa;stroke-width:1;fill:#ffffff" id="hex_8_1" class="hex-hexagon" /><path d="M165.0349,130.2739 l45.4545,0 22.7273,-13.1215 -22.7272,-13.1215 -45.4544,0 -22.7272,13.1216 z" style="stroke:#aaa;stroke-width:1;fill:#ffffff" id="hex_7_1" class="hex-hexagon" /><path d="M204.3997,153.0012 l45.4545,0 22.7273,-13.1215 -22.7272,-13.1215 -45.4544,0 -22.7272,13.1216 z" style="stroke:#aaa;stroke-width:1;fill:#ffffff" id="hex_6_1" class="hex-hexagon" /><path d="M243.7645,175.7284 l45.4545,0 22.7273,-13.1215 -22.7272,-13.1215 -45.4544,0 -22.7272,13.1216 z" style="stroke:#aaa;stroke-width:1;fill:#ffffff" id="hex_5_1" class="hex-hexagon" /><path d="M283.1293,198.4557 l45.4545,0 22.7273,-13.1215 -22.7272,-13.1215 -45.4544,0 -22.7272,13.1216 z" style="stroke:#aaa;stroke-width:1;fill:#ffffff" id="hex_4_1" class="hex-hexagon" /><path d="M322.4941,221.183 l45.4545,0 22.7273,-13.1215 -22.7272,-13.1215 -45.4544,0 -22.7272,13.1216 z" style="stroke:#aaa;stroke-width:1;fill:#ffffff" id="hex_3_1" class="hex-hexagon" /><path d="M361.8589,243.9102 l45.4545,0 22.7273,-13.1215 -22.7272,-13.1215 -45.4544,0 -22.7272,13.1216 z" style="stroke:#aaa;stroke-width:1;fill:#ffffff" id="hex_2_1" class="hex-hexagon" /><path d="M401.2237,266.6375 l45.4545,0 22.7273,-13.1215 -22.7272,-13.1215 -45.4544,0 -22.7272,13.1216 z" style="stroke:#aaa;stroke-width:1;fill:#ffffff" id="hex_1_1" class="hex-hexagon" /><path d="M46.9405,62.0921 l45.4545,0 22.7273,-13.1215 -22.7272,-13.1215 -45.4544,0 -22.7272,13.1216 z" style="stroke:#aaa;stroke-width:1;fill:#ffffff" id="hex_11_2" class="hex-hexagon" /><path d="M86.3053,84.8193 l45.4545,0 22.7273,-13.1215 -22.7272,-13.1215 -45.4544,0 -22.7272,13.1216 z" style="stroke:#aaa;stroke-width:1;fill:#ffffff" id="hex_10_2" class="hex-hexagon" /><path d="M125.6701,107.5466 l45.4545,0 22.7273,-13.1215 -22.7272,-13.1215 -45.4544,0 -22.7272,13.1216 z" style="stroke:#aaa;stroke-width:1;fill:#ffffff" id="hex_9_2" class="hex-hexagon" /><path d="M165.0349,130.2739 l45.4545,0 22.7273,-13.1215 -22.7272,-13.1215 -45.4544,0 -22.7272,13.1216 z" style="stroke:#aaa;stroke-width:1;fill:#ffffff" id="hex_8_2" class="hex-hexagon" /><path d="M204.3997,153.0012 l45.4545,0 22.7273,-13.1215 -22.7272,-13.1215 -45.4544,0 -22.7272,13.1216 z" style="stroke:#aaa;stroke-width:1;fill:#ffffff" id="hex_7_2" class="hex-hexagon" /><path d="M243.7645,175.7284 l45.4545,0 22.7273,-13.1215 -22.7272,-13.1215 -45.4544,0 -22.7272,13.1216 z" style="stroke:#aaa;stroke-width:1;fill:#ffffff" id="hex_6_2" class="hex-hexagon" /><path d="M283.1293,198.4557 l45.4545,0 22.7273,-13.1215 -22.7272,-13.1215 -45.4544,0 -22.7272,13.1216 z" style="stroke:#aaa;stroke-width:1;fill:#ffffff" id="hex_5_2" class="hex-hexagon" /><path d="M322.4941,221.183 l45.4545,0 22.7273,-13.1215 -22.7272,-13.1215 -45.4544,0 -22.7272,13.1216 z" style="stroke:#aaa;stroke-width:1;fill:#ffffff" id="hex_4_2" class="hex-hexagon" /><path d="M361.8589,243.9102 l45.4545,0 22.7273,-13.1215 -22.7272,-13.1215 -45.4544,0 -22.7272,13.1216 z" style="stroke:#aaa;stroke-width:1;fill:#ffffff" id="hex_3_2" class="hex-hexagon" /><path d="M401.2237,266.6375 l45.4545,0 22.7273,-13.1215 -22.7272,-13.1215 -45.4544,0 -22.7272,13.1216 z" style="stroke:#aaa;stroke-width:1;fill:#ffffff" id="hex_2_2" class="hex-hexagon" /><path d="M440.5885,289.3648 l45.4545,0 22.7273,-13.1215 -22.7272,-13.1215 -45.4544,0 -22.7272,13.1216 z" style="stroke:#aaa;stroke-width:1;fill:#ffffff" id="hex_1_2" class="hex-hexagon" /><path d="M86.3053,84.8193 l45.4545,0 22.7273,-13.1215 -22.7272,-13.1215 -45.4544,0 -22.7272,13.1216 z" style="stroke:#aaa;stroke-width:1;fill:#ffffff" id="hex_11_3" class="hex-hexagon" /><path d="M125.6701,107.5466 l45.4545,0 22.7273,-13.1215 -22.7272,-13.1215 -45.4544,0 -22.7272,13.1216 z" style="stroke:#aaa;stroke-width:1;fill:#ffffff" id="hex_10_3" class="hex-hexagon" /><path d="M165.0349,130.2739 l45.4545,0 22.7273,-13.1215 -22.7272,-13.1215 -45.4544,0 -22.7272,13.1216 z" style="stroke:#aaa;stroke-width:1;fill:#ffffff" id="hex_9_3" class="hex-hexagon" /><path d="M204.3997,153.0012 l45.4545,0 22.7273,-13.1215 -22.7272,-13.1215 -45.4544,0 -22.7272,13.1216 z" style="stroke:#aaa;stroke-width:1;fill:#ffffff" id="hex_8_3" class="hex-hexagon" /><path d="M243.7645,175.7284 l45.4545,0 22.7273,-13.1215 -22.7272,-13.1215 -45.4544,0 -22.7272,13.1216 z" style="stroke:#aaa;stroke-width:1;fill:#ffffff" id="hex_7_3" class="hex-hexagon" /><path d="M283.1293,198.4557 l45.4545,0 22.7273,-13.1215 -22.7272,-13.1215 -45.4544,0 -22.7272,13.1216 z" style="stroke:#aaa;stroke-width:1;fill:#ffffff" id="hex_6_3" class="hex-hexagon" /><path d="M322.4941,221.183 l45.4545,0 22.7273,-13.1215 -22.7272,-13.1215 -45.4544,0 -22.7272,13.1216 z" style="stroke:#aaa;stroke-width:1;fill:#ffffff" id="hex_5_3" class="hex-hexagon" /><path d="M361.8589,243.9102 l45.4545,0 22.7273,-13.1215 -22.7272,-13.1215 -45.4544,0 -22.7272,13.1216 z" style="stroke:#aaa;stroke-width:1;fill:#ffffff" id="hex_4_3" class="hex-hexagon" /><path d="M401.2237,266.6375 l45.4545,0 22.7273,-13.1215 -22.7272,-13.1215 -45.4544,0 -22.7272,13.1216 z" style="stroke:#aaa;stroke-width:1;fill:#ffffff" id="hex_3_3" class="hex-hexagon" /><path d="M440.5885,289.3648 l45.4545,0 22.7273,-13.1215 -22.7272,-13.1215 -45.4544,0 -22.7272,13.1216 z" style="stroke:#aaa;stroke-width:1;fill:#ffffff" id="hex_2_3" class="hex-hexagon" /><path d="M479.9533,312.0921 l45.4545,0 22.7273,-13.1215 -22.7272,-13.1215 -45.4544,0 -22.7272,13.1216 z" style="stroke:#aaa;stroke-width:1;fill:#ffffff" id="hex_1_3" class="hex-hexagon" /><path d="M125.6701,107.5466 l45.4545,0 22.7273,-13.1215 -22.7272,-13.1215 -45.4544,0 -22.7272,13.1216 z" style="stroke:#aaa;stroke-width:1;fill:#ffffff" id="hex_11_4" class="hex-hexagon" /><path d="M165.0349,130.2739 l45.4545,0 22.7273,-13.1215 -22.7272,-13.1215 -45.4544,0 -22.7272,13.1216 z" style="stroke:#aaa;stroke-width:1;fill:#ffffff" id="hex_10_4" class="hex-hexagon" /><path d="M204.3997,153.0012 l45.4545,0 22.7273,-13.1215 -22.7272,-13.1215 -45.4544,0 -22.7272,13.1216 z" style="stroke:#aaa;stroke-width:1;fill:#ffffff" id="hex_9_4" class="hex-hexagon" /><path d="M243.7645,175.7284 l45.4545,0 22.7273,-13.1215 -22.7272,-13.1215 -45.4544,0 -22.7272,13.1216 z" style="stroke:#aaa;stroke-width:1;fill:#ffffff" id="hex_8_4" class="hex-hexagon" /><path d="M283.1293,198.4557 l45.4545,0 22.7273,-13.1215 -22.7272,-13.1215 -45.4544,0 -22.7272,13.1216 z" style="stroke:#aaa;stroke-width:1;fill:#ffffff" id="hex_7_4" class="hex-hexagon" /><path d="M322.4941,221.183 l45.4545,0 22.7273,-13.1215 -22.7272,-13.1215 -45.4544,0 -22.7272,13.1216 z" style="stroke:#aaa;stroke-width:1;fill:#ffffff" id="hex_6_4" class="hex-hexagon" /><path d="M361.8589,243.9102 l45.4545,0 22.7273,-13.1215 -22.7272,-13.1215 -45.4544,0 -22.7272,13.1216 z" style="stroke:#aaa;stroke-width:1;fill:#ffffff" id="hex_5_4" class="hex-hexagon" /><path d="M401.2237,266.6375 l45.4545,0 22.7273,-13.1215 -22.7272,-13.1215 -45.4544,0 -22.7272,13.1216 z" style="stroke:#aaa;stroke-width:1;fill:#ffffff" id="hex_4_4" class="hex-hexagon" /><path d="M440.5885,289.3648 l45.4545,0 22.7273,-13.1215 -22.7272,-13.1215 -45.4544,0 -22.7272,13.1216 z" style="stroke:#aaa;stroke-width:1;fill:#ffffff" id="hex_3_4" class="hex-hexagon" /><path d="M479.9533,312.0921 l45.4545,0 22.7273,-13.1215 -22.7272,-13.1215 -45.4544,0 -22.7272,13.1216 z" style="stroke:#aaa;stroke-width:1;fill:#ffffff" id="hex_2_4" class="hex-hexagon" /><path d="M519.318,334.8193 l45.4545,0 22.7273,-13.1215 -22.7272,-13.1215 -45.4544,0 -22.7272,13.1216 z" style="stroke:#aaa;stroke-width:1;fill:#ffffff" id="hex_1_4" class="hex-hexagon" /><path d="M165.0349,130.2739 l45.4545,0 22.7273,-13.1215 -22.7272,-13.1215 -45.4544,0 -22.7272,13.1216 z" style="stroke:#aaa;stroke-width:1;fill:#ffffff" id="hex_11_5" class="hex-hexagon" /><path d="M204.3997,153.0012 l45.4545,0 22.7273,-13.1215 -22.7272,-13.1215 -45.4544,0 -22.7272,13.1216 z" style="stroke:#aaa;stroke-width:1;fill:#ffffff" id="hex_10_5" class="hex-hexagon" /><path d="M243.7645,175.7284 l45.4545,0 22.7273,-13.1215 -22.7272,-13.1215 -45.4544,0 -22.7272,13.1216 z" style="stroke:#aaa;stroke-width:1;fill:#ffffff" id="hex_9_5" class="hex-hexagon" /><path d="M283.1293,198.4557 l45.4545,0 22.7273,-13.1215 -22.7272,-13.1215 -45.4544,0 -22.7272,13.1216 z" style="stroke:#aaa;stroke-width:1;fill:#ffffff" id="hex_8_5" class="hex-hexagon" /><path d="M322.4941,221.183 l45.4545,0 22.7273,-13.1215 -22.7272,-13.1215 -45.4544,0 -22.7272,13.1216 z" style="stroke:#aaa;stroke-width:1;fill:#ffffff" id="hex_7_5" class="hex-hexagon" /><path d="M361.8589,243.9102 l45.4545,0 22.7273,-13.1215 -22.7272,-13.1215 -45.4544,0 -22.7272,13.1216 z" style="stroke:#aaa;stroke-width:1;fill:#ffffff" id="hex_6_5" class="hex-hexagon" /><path d="M401.2237,266.6375 l45.4545,0 22.7273,-13.1215 -22.7272,-13.1215 -45.4544,0 -22.7272,13.1216 z" style="stroke:#aaa;stroke-width:1;fill:#ffffff" id="hex_5_5" class="hex-hexagon" /><path d="M440.5885,289.3648 l45.4545,0 22.7273,-13.1215 -22.7272,-13.1215 -45.4544,0 -22.7272,13.1216 z" style="stroke:#aaa;stroke-width:1;fill:#ffffff" id="hex_4_5" class="hex-hexagon" /><path d="M479.9533,312.0921 l45.4545,0 22.7273,-13.1215 -22.7272,-13.1215 -45.4544,0 -22.7272,13.1216 z" style="stroke:#aaa;stroke-width:1;fill:#ffffff" id="hex_3_5" class="hex-hexagon" /><path d="M519.318,334.8193 l45.4545,0 22.7273,-13.1215 -22.7272,-13.1215 -45.4544,0 -22.7272,13.1216 z" style="stroke:#aaa;stroke-width:1;fill:#ffffff" id="hex_2_5" class="hex-hexagon" /><path d="M558.6828,357.5466 l45.4545,0 22.7273,-13.1215 -22.7272,-13.1215 -45.4544,0 -22.7272,13.1216 z" style="stroke:#aaa;stroke-width:1;fill:#ffffff" id="hex_1_5" class="hex-hexagon" /><path d="M204.3997,153.0012 l45.4545,0 22.7273,-13.1215 -22.7272,-13.1215 -45.4544,0 -22.7272,13.1216 z" style="stroke:#aaa;stroke-width:1;fill:#ffffff" id="hex_11_6" class="hex-hexagon" /><path d="M243.7645,175.7284 l45.4545,0 22.7273,-13.1215 -22.7272,-13.1215 -45.4544,0 -22.7272,13.1216 z" style="stroke:#aaa;stroke-width:1;fill:#ffffff" id="hex_10_6" class="hex-hexagon" /><path d="M283.1293,198.4557 l45.4545,0 22.7273,-13.1215 -22.7272,-13.1215 -45.4544,0 -22.7272,13.1216 z" style="stroke:#aaa;stroke-width:1;fill:#ffffff" id="hex_9_6" class="hex-hexagon" /><path d="M322.4941,221.183 l45.4545,0 22.7273,-13.1215 -22.7272,-13.1215 -45.4544,0 -22.7272,13.1216 z" style="stroke:#aaa;stroke-width:1;fill:#ffffff" id="hex_8_6" class="hex-hexagon" /><path d="M361.8589,243.9102 l45.4545,0 22.7273,-13.1215 -22.7272,-13.1215 -45.4544,0 -22.7272,13.1216 z" style="stroke:#aaa;stroke-width:1;fill:#ffffff" id="hex_7_6" class="hex-hexagon" /><path d="M401.2237,266.6375 l45.4545,0 22.7273,-13.1215 -22.7272,-13.1215 -45.4544,0 -22.7272,13.1216 z" style="stroke:#aaa;stroke-width:1;fill:#ffffff" id="hex_6_6" class="hex-hexagon" /><path d="M440.5885,289.3648 l45.4545,0 22.7273,-13.1215 -22.7272,-13.1215 -45.4544,0 -22.7272,13.1216 z" style="stroke:#aaa;stroke-width:1;fill:#ffffff" id="hex_5_6" class="hex-hexagon" /><path d="M479.9533,312.0921 l45.4545,0 22.7273,-13.1215 -22.7272,-13.1215 -45.4544,0 -22.7272,13.1216 z" style="stroke:#aaa;stroke-width:1;fill:#ffffff" id="hex_4_6" class="hex-hexagon" /><path d="M519.318,334.8193 l45.4545,0 22.7273,-13.1215 -22.7272,-13.1215 -45.4544,0 -22.7272,13.1216 z" style="stroke:#aaa;stroke-width:1;fill:#ffffff" id="hex_3_6" class="hex-hexagon" /><path d="M558.6828,357.5466 l45.4545,0 22.7273,-13.1215 -22.7272,-13.1215 -45.4544,0 -22.7272,13.1216 z" style="stroke:#aaa;stroke-width:1;fill:#ffffff" id="hex_2_6" class="hex-hexagon" /><path d="M598.0476,380.2739 l45.4545,0 22.7273,-13.1215 -22.7272,-13.1215 -45.4544,0 -22.7272,13.1216 z" style="stroke:#aaa;stroke-width:1;fill:#ffffff" id="hex_1_6" class="hex-hexagon" /><path d="M243.7645,175.7284 l45.4545,0 22.7273,-13.1215 -22.7272,-13.1215 -45.4544,0 -22.7272,13.1216 z" style="stroke:#aaa;stroke-width:1;fill:#ffffff" id="hex_11_7" class="hex-hexagon" /><path d="M283.1293,198.4557 l45.4545,0 22.7273,-13.1215 -22.7272,-13.1215 -45.4544,0 -22.7272,13.1216 z" style="stroke:#aaa;stroke-width:1;fill:#ffffff" id="hex_10_7" class="hex-hexagon" /><path d="M322.4941,221.183 l45.4545,0 22.7273,-13.1215 -22.7272,-13.1215 -45.4544,0 -22.7272,13.1216 z" style="stroke:#aaa;stroke-width:1;fill:#ffffff" id="hex_9_7" class="hex-hexagon" /><path d="M361.8589,243.9102 l45.4545,0 22.7273,-13.1215 -22.7272,-13.1215 -45.4544,0 -22.7272,13.1216 z" style="stroke:#aaa;stroke-width:1;fill:#ffffff" id="hex_8_7" class="hex-hexagon" /><path d="M401.2237,266.6375 l45.4545,0 22.7273,-13.1215 -22.7272,-13.1215 -45.4544,0 -22.7272,13.1216 z" style="stroke:#aaa;stroke-width:1;fill:#ffffff" id="hex_7_7" class="hex-hexagon" /><path d="M440.5885,289.3648 l45.4545,0 22.7273,-13.1215 -22.7272,-13.1215 -45.4544,0 -22.7272,13.1216 z" style="stroke:#aaa;stroke-width:1;fill:#ffffff" id="hex_6_7" class="hex-hexagon" /><path d="M479.9533,312.0921 l45.4545,0 22.7273,-13.1215 -22.7272,-13.1215 -45.4544,0 -22.7272,13.1216 z" style="stroke:#aaa;stroke-width:1;fill:#ffffff" id="hex_5_7" class="hex-hexagon" /><path d="M519.318,334.8193 l45.4545,0 22.7273,-13.1215 -22.7272,-13.1215 -45.4544,0 -22.7272,13.1216 z" style="stroke:#aaa;stroke-width:1;fill:#ffffff" id="hex_4_7" class="hex-hexagon" /><path d="M558.6828,357.5466 l45.4545,0 22.7273,-13.1215 -22.7272,-13.1215 -45.4544,0 -22.7272,13.1216 z" style="stroke:#aaa;stroke-width:1;fill:#ffffff" id="hex_3_7" class="hex-hexagon" /><path d="M598.0476,380.2739 l45.4545,0 22.7273,-13.1215 -22.7272,-13.1215 -45.4544,0 -22.7272,13.1216 z" style="stroke:#aaa;stroke-width:1;fill:#ffffff" id="hex_2_7" class="hex-hexagon" /><path d="M637.4124,403.0012 l45.4545,0 22.7273,-13.1215 -22.7272,-13.1215 -45.4544,0 -22.7272,13.1216 z" style="stroke:#aaa;stroke-width:1;fill:#ffffff" id="hex_1_7" class="hex-hexagon" /><path d="M283.1293,198.4557 l45.4545,0 22.7273,-13.1215 -22.7272,-13.1215 -45.4544,0 -22.7272,13.1216 z" style="stroke:#aaa;stroke-width:1;fill:#ffffff" id="hex_11_8" class="hex-hexagon" /><path d="M322.4941,221.183 l45.4545,0 22.7273,-13.1215 -22.7272,-13.1215 -45.4544,0 -22.7272,13.1216 z" style="stroke:#aaa;stroke-width:1;fill:#ffffff" id="hex_10_8" class="hex-hexagon" /><path d="M361.8589,243.9102 l45.4545,0 22.7273,-13.1215 -22.7272,-13.1215 -45.4544,0 -22.7272,13.1216 z" style="stroke:#aaa;stroke-width:1;fill:#ffffff" id="hex_9_8" class="hex-hexagon" /><path d="M401.2237,266.6375 l45.4545,0 22.7273,-13.1215 -22.7272,-13.1215 -45.4544,0 -22.7272,13.1216 z" style="stroke:#aaa;stroke-width:1;fill:#ffffff" id="hex_8_8" class="hex-hexagon" /><path d="M440.5885,289.3648 l45.4545,0 22.7273,-13.1215 -22.7272,-13.1215 -45.4544,0 -22.7272,13.1216 z" style="stroke:#aaa;stroke-width:1;fill:#ffffff" id="hex_7_8" class="hex-hexagon" /><path d="M479.9533,312.0921 l45.4545,0 22.7273,-13.1215 -22.7272,-13.1215 -45.4544,0 -22.7272,13.1216 z" style="stroke:#aaa;stroke-width:1;fill:#ffffff" id="hex_6_8" class="hex-hexagon" /><path d="M519.318,334.8193 l45.4545,0 22.7273,-13.1215 -22.7272,-13.1215 -45.4544,0 -22.7272,13.1216 z" style="stroke:#aaa;stroke-width:1;fill:#ffffff" id="hex_5_8" class="hex-hexagon" /><path d="M558.6828,357.5466 l45.4545,0 22.7273,-13.1215 -22.7272,-13.1215 -45.4544,0 -22.7272,13.1216 z" style="stroke:#aaa;stroke-width:1;fill:#ffffff" id="hex_4_8" class="hex-hexagon" /><path d="M598.0476,380.2739 l45.4545,0 22.7273,-13.1215 -22.7272,-13.1215 -45.4544,0 -22.7272,13.1216 z" style="stroke:#aaa;stroke-width:1;fill:#ffffff" id="hex_3_8" class="hex-hexagon" /><path d="M637.4124,403.0012 l45.4545,0 22.7273,-13.1215 -22.7272,-13.1215 -45.4544,0 -22.7272,13.1216 z" style="stroke:#aaa;stroke-width:1;fill:#ffffff" id="hex_2_8" class="hex-hexagon" /><path d="M676.7772,425.7284 l45.4545,0 22.7273,-13.1215 -22.7272,-13.1215 -45.4544,0 -22.7272,13.1216 z" style="stroke:#aaa;stroke-width:1;fill:#ffffff" id="hex_1_8" class="hex-hexagon" /><path d="M322.4941,221.183 l45.4545,0 22.7273,-13.1215 -22.7272,-13.1215 -45.4544,0 -22.7272,13.1216 z" style="stroke:#aaa;stroke-width:1;fill:#ffffff" id="hex_11_9" class="hex-hexagon" /><path d="M361.8589,243.9102 l45.4545,0 22.7273,-13.1215 -22.7272,-13.1215 -45.4544,0 -22.7272,13.1216 z" style="stroke:#aaa;stroke-width:1;fill:#ffffff" id="hex_10_9" class="hex-hexagon" /><path d="M401.2237,266.6375 l45.4545,0 22.7273,-13.1215 -22.7272,-13.1215 -45.4544,0 -22.7272,13.1216 z" style="stroke:#aaa;stroke-width:1;fill:#ffffff" id="hex_9_9" class="hex-hexagon" /><path d="M440.5885,289.3648 l45.4545,0 22.7273,-13.1215 -22.7272,-13.1215 -45.4544,0 -22.7272,13.1216 z" style="stroke:#aaa;stroke-width:1;fill:#ffffff" id="hex_8_9" class="hex-hexagon" /><path d="M479.9533,312.0921 l45.4545,0 22.7273,-13.1215 -22.7272,-13.1215 -45.4544,0 -22.7272,13.1216 z" style="stroke:#aaa;stroke-width:1;fill:#ffffff" id="hex_7_9" class="hex-hexagon" /><path d="M519.318,334.8193 l45.4545,0 22.7273,-13.1215 -22.7272,-13.1215 -45.4544,0 -22.7272,13.1216 z" style="stroke:#aaa;stroke-width:1;fill:#ffffff" id="hex_6_9" class="hex-hexagon" /><path d="M558.6828,357.5466 l45.4545,0 22.7273,-13.1215 -22.7272,-13.1215 -45.4544,0 -22.7272,13.1216 z" style="stroke:#aaa;stroke-width:1;fill:#ffffff" id="hex_5_9" class="hex-hexagon" /><path d="M598.0476,380.2739 l45.4545,0 22.7273,-13.1215 -22.7272,-13.1215 -45.4544,0 -22.7272,13.1216 z" style="stroke:#aaa;stroke-width:1;fill:#ffffff" id="hex_4_9" class="hex-hexagon" /><path d="M637.4124,403.0012 l45.4545,0 22.7273,-13.1215 -22.7272,-13.1215 -45.4544,0 -22.7272,13.1216 z" style="stroke:#aaa;stroke-width:1;fill:#ffffff" id="hex_3_9" class="hex-hexagon" /><path d="M676.7772,425.7284 l45.4545,0 22.7273,-13.1215 -22.7272,-13.1215 -45.4544,0 -22.7272,13.1216 z" style="stroke:#aaa;stroke-width:1;fill:#ffffff" id="hex_2_9" class="hex-hexagon" /><path d="M716.142,448.4557 l45.4545,0 22.7273,-13.1215 -22.7272,-13.1215 -45.4544,0 -22.7272,13.1216 z" style="stroke:#aaa;stroke-width:1;fill:#ffffff" id="hex_1_9" class="hex-hexagon" /><path d="M361.8589,243.9102 l45.4545,0 22.7273,-13.1215 -22.7272,-13.1215 -45.4544,0 -22.7272,13.1216 z" style="stroke:#aaa;stroke-width:1;fill:#ffffff" id="hex_11_10" class="hex-hexagon" /><path d="M401.2237,266.6375 l45.4545,0 22.7273,-13.1215 -22.7272,-13.1215 -45.4544,0 -22.7272,13.1216 z" style="stroke:#aaa;stroke-width:1;fill:#ffffff" id="hex_10_10" class="hex-hexagon" /><path d="M440.5885,289.3648 l45.4545,0 22.7273,-13.1215 -22.7272,-13.1215 -45.4544,0 -22.7272,13.1216 z" style="stroke:#aaa;stroke-width:1;fill:#ffffff" id="hex_9_10" class="hex-hexagon" /><path d="M479.9533,312.0921 l45.4545,0 22.7273,-13.1215 -22.7272,-13.1215 -45.4544,0 -22.7272,13.1216 z" style="stroke:#aaa;stroke-width:1;fill:#ffffff" id="hex_8_10" class="hex-hexagon" /><path d="M519.318,334.8193 l45.4545,0 22.7273,-13.1215 -22.7272,-13.1215 -45.4544,0 -22.7272,13.1216 z" style="stroke:#aaa;stroke-width:1;fill:#ffffff" id="hex_7_10" class="hex-hexagon" /><path d="M558.6828,357.5466 l45.4545,0 22.7273,-13.1215 -22.7272,-13.1215 -45.4544,0 -22.7272,13.1216 z" style="stroke:#aaa;stroke-width:1;fill:#ffffff" id="hex_6_10" class="hex-hexagon" /><path d="M598.0476,380.2739 l45.4545,0 22.7273,-13.1215 -22.7272,-13.1215 -45.4544,0 -22.7272,13.1216 z" style="stroke:#aaa;stroke-width:1;fill:#ffffff" id="hex_5_10" class="hex-hexagon" /><path d="M637.4124,403.0012 l45.4545,0 22.7273,-13.1215 -22.7272,-13.1215 -45.4544,0 -22.7272,13.1216 z" style="stroke:#aaa;stroke-width:1;fill:#ffffff" id="hex_4_10" class="hex-hexagon" /><path d="M676.7772,425.7284 l45.4545,0 22.7273,-13.1215 -22.7272,-13.1215 -45.4544,0 -22.7272,13.1216 z" style="stroke:#aaa;stroke-width:1;fill:#ffffff" id="hex_3_10" class="hex-hexagon" /><path d="M716.142,448.4557 l45.4545,0 22.7273,-13.1215 -22.7272,-13.1215 -45.4544,0 -22.7272,13.1216 z" style="stroke:#aaa;stroke-width:1;fill:#ffffff" id="hex_2_10" class="hex-hexagon" /><path d="M755.5068,471.183 l45.4545,0 22.7273,-13.1215 -22.7272,-13.1215 -45.4544,0 -22.7272,13.1216 z" style="stroke:#aaa;stroke-width:1;fill:#ffffff" id="hex_1_10" class="hex-hexagon" /><path d="M401.2237,266.6375 l45.4545,0 22.7273,-13.1215 -22.7272,-13.1215 -45.4544,0 -22.7272,13.1216 z" style="stroke:#aaa;stroke-width:1;fill:#ffffff" id="hex_11_11" class="hex-hexagon" /><path d="M440.5885,289.3648 l45.4545,0 22.7273,-13.1215 -22.7272,-13.1215 -45.4544,0 -22.7272,13.1216 z" style="stroke:#aaa;stroke-width:1;fill:#ffffff" id="hex_10_11" class="hex-hexagon" /><path d="M479.9533,312.0921 l45.4545,0 22.7273,-13.1215 -22.7272,-13.1215 -45.4544,0 -22.7272,13.1216 z" style="stroke:#aaa;stroke-width:1;fill:#ffffff" id="hex_9_11" class="hex-hexagon" /><path d="M519.318,334.8193 l45.4545,0 22.7273,-13.1215 -22.7272,-13.1215 -45.4544,0 -22.7272,13.1216 z" style="stroke:#aaa;stroke-width:1;fill:#ffffff" id="hex_8_11" class="hex-hexagon" /><path d="M558.6828,357.5466 l45.4545,0 22.7273,-13.1215 -22.7272,-13.1215 -45.4544,0 -22.7272,13.1216 z" style="stroke:#aaa;stroke-width:1;fill:#ffffff" id="hex_7_11" class="hex-hexagon" /><path d="M598.0476,380.2739 l45.4545,0 22.7273,-13.1215 -22.7272,-13.1215 -45.4544,0 -22.7272,13.1216 z" style="stroke:#aaa;stroke-width:1;fill:#ffffff" id="hex_6_11" class="hex-hexagon" /><path d="M637.4124,403.0012 l45.4545,0 22.7273,-13.1215 -22.7272,-13.1215 -45.4544,0 -22.7272,13.1216 z" style="stroke:#aaa;stroke-width:1;fill:#ffffff" id="hex_5_11" class="hex-hexagon" /><path d="M676.7772,425.7284 l45.4545,0 22.7273,-13.1215 -22.7272,-13.1215 -45.4544,0 -22.7272,13.1216 z" style="stroke:#aaa;stroke-width:1;fill:#ffffff" id="hex_4_11" class="hex-hexagon" /><path d="M716.142,448.4557 l45.4545,0 22.7273,-13.1215 -22.7272,-13.1215 -45.4544,0 -22.7272,13.1216 z" style="stroke:#aaa;stroke-width:1;fill:#ffffff" id="hex_3_11" class="hex-hexagon" /><path d="M755.5068,471.183 l45.4545,0 22.7273,-13.1215 -22.7272,-13.1215 -45.4544,0 -22.7272,13.1216 z" style="stroke:#aaa;stroke-width:1;fill:#ffffff" id="hex_2_11" class="hex-hexagon" /><path d="M794.8716,493.9102 l45.4545,0 22.7273,-13.1215 -22.7272,-13.1215 -45.4544,0 -22.7272,13.1216 z" style="stroke:#aaa;stroke-width:1;fill:#ffffff" id="hex_1_11" class="hex-hexagon" /></g></svg>