<svg xmlns:xlink="http://www.w3.org/1999/xlink" id="svg_root" preserveAspectRatio="xMinYMin"
    version="1.1" viewBox="0 0 866.0254 545.4545" xmlns="http://www.w3.org/2000/svg">
    <script type="text/javascript" xlink:href="jquery.min.js"></script>
    <script type="text/javascript" xlink:href="svg.min.js"></script>
    <script type="text/javascript" xlink:href="app.js"></script>
    <g id="svg_g">
        <path style="fill:#ff0000" class="hex-grid-edge-left-top" d="M375,216.5064 L0,0 500,0 z"
            id="hex_grid_edge_left_top" />
        <path style="fill:#ff0000" class="hex-grid-edge-right-bottom"
            d="M375,216.5064 L750,433.0127 250,433.0127 z" id="hex_grid_edge_right_bottom" />
        <path style="fill:#0000ff" class="hex-grid-edge-left-bottom"
            d="M375,216.5064 L0,0 250,433.0127 z" id="hex_grid_edge_left_bottom" />
        <path style="fill:#0000ff" class="hex-grid-edge-right-top"
            d="M375,216.5064 L750,433.0127 500,0 z" id="hex_grid_edge_right_top" />
        <path
            style="stroke:#aaa;stroke-width:1;fill:#ffffff"
            class="hex-hexagon" d="M7.5758,39.3648 l45.4545,0 22.7273,-13.1215 -22.7272,-13.1215 -45.4544,0 -22.7272,13.1216 z" id="hex_11_1" />
        <path
            style="stroke:#aaa;stroke-width:1;fill:#ffffff"
            class="hex-hexagon" d="M46.9405,62.0921 l45.4545,0 22.7273,-13.1215 -22.7272,-13.1215 -45.4544,0 -22.7272,13.1216 z" id="hex_10_1" />
        <path
            style="stroke:#aaa;stroke-width:1;fill:#ffffff"
            class="hex-hexagon" d="M86.3053,84.8193 l45.4545,0 22.7273,-13.1215 -22.7272,-13.1215 -45.4544,0 -22.7272,13.1216 z" id="hex_9_1" />
        <path
            style="stroke:#aaa;stroke-width:1;fill:#ffffff"
            class="hex-hexagon" d="M125.6701,107.5466 l45.4545,0 22.7273,-13.1215 -22.7272,-13.1215 -45.4544,0 -22.7272,13.1216 z" id="hex_8_1" />
        <path
            style="stroke:#aaa;stroke-width:1;fill:#ffffff"
            class="hex-hexagon" d="M165.0349,130.2739 l45.4545,0 22.7273,-13.1215 -22.7272,-13.1215 -45.4544,0 -22.7272,13.1216 z" id="hex_7_1" />
        <path
            style="stroke:#aaa;stroke-width:1;fill:#ffffff"
            class="hex-hexagon" d="M204.3997,153.0012 l45.4545,0 22.7273,-13.1215 -22.7272,-13.1215 -45.4544,0 -22.7272,13.1216 z" id="hex_6_1" />
        <path
            style="stroke:#aaa;stroke-width:1;fill:#ffffff"
            class="hex-hexagon" d="M243.7645,175.7284 l45.4545,0 22.7273,-13.1215 -22.7272,-13.1215 -45.4544,0 -22.7272,13.1216 z" id="hex_5_1" />
        <path
            style="stroke:#aaa;stroke-width:1;fill:#ffffff"
            class="hex-hexagon" d="M283.1293,198.4557 l45.4545,0 22.7273,-13.1215 -22.7272,-13.1215 -45.4544,0 -22.7272,13.1216 z" id="hex_4_1" />
        <path
            style="stroke:#aaa;stroke-width:1;fill:#ffffff"
            class="hex-hexagon" d="M322.4941,221.183 l45.4545,0 22.7273,-13.1215 -22.7272,-13.1215 -45.4544,0 -22.7272,13.1216 z" id="hex_3_1" />
        <path
            style="stroke:#aaa;stroke-width:1;fill:#ffffff"
            class="hex-hexagon" d="M361.8589,243.9102 l45.4545,0 22.7273,-13.1215 -22.7272,-13.1215 -45.4544,0 -22.7272,13.1216 z" id="hex_2_1" />
        <path
            style="stroke:#aaa;stroke-width:1;fill:#ffffff"
            class="hex-hexagon" d="M401.2237,266.6375 l45.4545,0 22.7273,-13.1215 -22.7272,-13.1215 -45.4544,0 -22.7272,13.1216 z" id="hex_1_1" />
        <path
            style="stroke:#aaa;stroke-width:1;fill:#ffffff"
            class="hex-hexagon" d="M46.9405,62.0921 l45.4545,0 22.7273,-13.1215 -22.7272,-13.1215 -45.4544,0 -22.7272,13.1216 z" id="hex_11_2" />
        <path
            style="stroke:#aaa;stroke-width:1;fill:#ffffff"
            class="hex-hexagon" d="M86.3053,84.8193 l45.4545,0 22.7273,-13.1215 -22.7272,-13.1215 -45.4544,0 -22.7272,13.1216 z" id="hex_10_2" />
        <path
            style="stroke:#aaa;stroke-width:1;fill:#ffffff"
            class="hex-hexagon" d="M125.6701,107.5466 l45.4545,0 22.7273,-13.1215 -22.7272,-13.1215 -45.4544,0 -22.7272,13.1216 z" id="hex_9_2" />
        <path
            style="stroke:#aaa;stroke-width:1;fill:#ffffff"
            class="hex-hexagon" d="M165.0349,130.2739 l45.4545,0 22.7273,-13.1215 -22.7272,-13.1215 -45.4544,0 -22.7272,13.1216 z" id="hex_8_2" />
        <path
            style="stroke:#aaa;stroke-width:1;fill:#ffffff"
            class="hex-hexagon" d="M204.3997,153.0012 l45.4545,0 22.7273,-13.1215 -22.7272,-13.1215 -45.4544,0 -22.7272,13.1216 z" id="hex_7_2" />
        <path
            style="stroke:#aaa;stroke-width:1;fill:#ffffff"
            class="hex-hexagon" d="M243.7645,175.7284 l45.4545,0 22.7273,-13.1215 -22.7272,-13.1215 -45.4544,0 -22.7272,13.1216 z" id="hex_6_2" />
        <path
            style="stroke:#aaa;stroke-width:1;fill:#ffffff"
            class="hex-hexagon" d="M283.1293,198.4557 l45.4545,0 22.7273,-13.1215 -22.7272,-13.1215 -45.4544,0 -22.7272,13.1216 z" id="hex_5_2" />
        <path
            style="stroke:#aaa;stroke-width:1;fill:#ffffff"
            class="hex-hexagon" d="M322.4941,221.183 l45.4545,0 22.7273,-13.1215 -22.7272,-13.1215 -45.4544,0 -22.7272,13.1216 z" id="hex_4_2" />
        <path
            style="stroke:#aaa;stroke-width:1;fill:#ffffff"
            class="hex-hexagon" d="M361.8589,243.9102 l45.4545,0 22.7273,-13.1215 -22.7272,-13.1215 -45.4544,0 -22.7272,13.1216 z" id="hex_3_2" />
        <path
            style="stroke:#aaa;stroke-width:1;fill:#ffffff"
            class="hex-hexagon" d="M401.2237,266.6375 l45.4545,0 22.7273,-13.1215 -22.7272,-13.1215 -45.4544,0 -22.7272,13.1216 z" id="hex_2_2" />
        <path
            style="stroke:#aaa;stroke-width:1;fill:#ffffff"
            class="hex-hexagon" d="M440.5885,289.3648 l45.4545,0 22.7273,-13.1215 -22.7272,-13.1215 -45.4544,0 -22.7272,13.1216 z" id="hex_1_2" />
        <path
            style="stroke:#aaa;stroke-width:1;fill:#ffffff"
            class="hex-hexagon" d="M86.3053,84.8193 l45.4545,0 22.7273,-13.1215 -22.7272,-13.1215 -45.4544,0 -22.7272,13.1216 z" id="hex_11_3" />
        <path
            style="stroke:#aaa;stroke-width:1;fill:#ffffff"
            class="hex-hexagon" d="M125.6701,107.5466 l45.4545,0 22.7273,-13.1215 -22.7272,-13.1215 -45.4544,0 -22.7272,13.1216 z" id="hex_10_3" />
        <path
            style="stroke:#aaa;stroke-width:1;fill:#ffffff"
            class="hex-hexagon" d="M165.0349,130.2739 l45.4545,0 22.7273,-13.1215 -22.7272,-13.1215 -45.4544,0 -22.7272,13.1216 z" id="hex_9_3" />
        <path
            style="stroke:#aaa;stroke-width:1;fill:#ffffff"
            class="hex-hexagon" d="M204.3997,153.0012 l45.4545,0 22.7273,-13.1215 -22.7272,-13.1215 -45.4544,0 -22.7272,13.1216 z" id="hex_8_3" />
        <path
            style="stroke:#aaa;stroke-width:1;fill:#ffffff"
            class="hex-hexagon" d="M243.7645,175.7284 l45.4545,0 22.7273,-13.1215 -22.7272,-13.1215 -45.4544,0 -22.7272,13.1216 z" id="hex_7_3" />
        <path
            style="stroke:#aaa;stroke-width:1;fill:#ffffff"
            class="hex-hexagon" d="M283.1293,198.4557 l45.4545,0 22.7273,-13.1215 -22.7272,-13.1215 -45.4544,0 -22.7272,13.1216 z" id="hex_6_3" />
        <path
            style="stroke:#aaa;stroke-width:1;fill:#ffffff"
            class="hex-hexagon" d="M322.4941,221.183 l45.4545,0 22.7273,-13.1215 -22.7272,-13.1215 -45.4544,0 -22.7272,13.1216 z" id="hex_5_3" />
        <path
            style="stroke:#aaa;stroke-width:1;fill:#ffffff"
            class="hex-hexagon" d="M361.8589,243.9102 l45.4545,0 22.7273,-13.1215 -22.7272,-13.1215 -45.4544,0 -22.7272,13.1216 z" id="hex_4_3" />
        <path
            style="stroke:#aaa;stroke-width:1;fill:#ffffff"
            class="hex-hexagon" d="M401.2237,266.6375 l45.4545,0 22.7273,-13.1215 -22.7272,-13.1215 -45.4544,0 -22.7272,13.1216 z" id="hex_3_3" />
        <path
            style="stroke:#aaa;stroke-width:1;fill:#ffffff"
            class="hex-hexagon" d="M440.5885,289.3648 l45.4545,0 22.7273,-13.1215 -22.7272,-13.1215 -45.4544,0 -22.7272,13.1216 z" id="hex_2_3" />
        <path
            style="stroke:#aaa;stroke-width:1;fill:#ffffff"
            class="hex-hexagon" d="M479.9533,312.0921 l45.4545,0 22.7273,-13.1215 -22.7272,-13.1215 -45.4544,0 -22.7272,13.1216 z" id="hex_1_3" />
        <path
            style="stroke:#aaa;stroke-width:1;fill:#ffffff"
            class="hex-hexagon" d="M125.6701,107.5466 l45.4545,0 22.7273,-13.1215 -22.7272,-13.1215 -45.4544,0 -22.7272,13.1216 z" id="hex_11_4" />
        <path
            style="stroke:#aaa;stroke-width:1;fill:#ffffff"
            class="hex-hexagon" d="M165.0349,130.2739 l45.4545,0 22.7273,-13.1215 -22.7272,-13.1215 -45.4544,0 -22.7272,13.1216 z" id="hex_10_4" />
        <path
            style="stroke:#aaa;stroke-width:1;fill:#ffffff"
            class="hex-hexagon" d="M204.3997,153.0012 l45.4545,0 22.7273,-13.1215 -22.7272,-13.1215 -45.4544,0 -22.7272,13.1216 z" id="hex_9_4" />
        <path
            style="stroke:#aaa;stroke-width:1;fill:#ffffff"
            class="hex-hexagon" d="M243.7645,175.7284 l45.4545,0 22.7273,-13.1215 -22.7272,-13.1215 -45.4544,0 -22.7272,13.1216 z" id="hex_8_4" />
        <path
            style="stroke:#aaa;stroke-width:1;fill:#ffffff"
            class="hex-hexagon" d="M283.1293,198.4557 l45.4545,0 22.7273,-13.1215 -22.7272,-13.1215 -45.4544,0 -22.7272,13.1216 z" id="hex_7_4" />
        <path
            style="stroke:#aaa;stroke-width:1;fill:#ffffff"
            class="hex-hexagon" d="M322.4941,221.183 l45.4545,0 22.7273,-13.1215 -22.7272,-13.1215 -45.4544,0 -22.7272,13.1216 z" id="hex_6_4" />
        <path
            style="stroke:#aaa;stroke-width:1;fill:#ffffff"
            class="hex-hexagon" d="M361.8589,243.9102 l45.4545,0 22.7273,-13.1215 -22.7272,-13.1215 -45.4544,0 -22.7272,13.1216 z" id="hex_5_4" />
        <path
            style="stroke:#aaa;stroke-width:1;fill:#ffffff"
            class="hex-hexagon" d="M401.2237,266.6375 l45.4545,0 22.7273,-13.1215 -22.7272,-13.1215 -45.4544,0 -22.7272,13.1216 z" id="hex_4_4" />
        <path
            style="stroke:#aaa;stroke-width:1;fill:#ffffff"
            class="hex-hexagon" d="M440.5885,289.3648 l45.4545,0 22.7273,-13.1215 -22.7272,-13.1215 -45.4544,0 -22.7272,13.1216 z" id="hex_3_4" />
        <path
            style="stroke:#aaa;stroke-width:1;fill:#ffffff"
            class="hex-hexagon" d="M479.9533,312.0921 l45.4545,0 22.7273,-13.1215 -22.7272,-13.1215 -45.4544,0 -22.7272,13.1216 z" id="hex_2_4" />
        <path
            style="stroke:#aaa;stroke-width:1;fill:#ffffff"
            class="hex-hexagon" d="M519.318,334.8193 l45.4545,0 22.7273,-13.1215 -22.7272,-13.1215 -45.4544,0 -22.7272,13.1216 z" id="hex_1_4" />
        <path
            style="stroke:#aaa;stroke-width:1;fill:#ffffff"
            class="hex-hexagon" d="M165.0349,130.2739 l45.4545,0 22.7273,-13.1215 -22.7272,-13.1215 -45.4544,0 -22.7272,13.1216 z" id="hex_11_5" />
        <path
            style="stroke:#aaa;stroke-width:1;fill:#ffffff"
            class="hex-hexagon" d="M204.3997,153.0012 l45.4545,0 22.7273,-13.1215 -22.7272,-13.1215 -45.4544,0 -22.7272,13.1216 z" id="hex_10_5" />
        <path
            style="stroke:#aaa;stroke-width:1;fill:#ffffff"
            class="hex-hexagon" d="M243.7645,175.7284 l45.4545,0 22.7273,-13.1215 -22.7272,-13.1215 -45.4544,0 -22.7272,13.1216 z" id="hex_9_5" />
        <path
            style="stroke:#aaa;stroke-width:1;fill:#ffffff"
            class="hex-hexagon" d="M283.1293,198.4557 l45.4545,0 22.7273,-13.1215 -22.7272,-13.1215 -45.4544,0 -22.7272,13.1216 z" id="hex_8_5" />
        <path
            style="stroke:#aaa;stroke-width:1;fill:#ffffff"
            class="hex-hexagon" d="M322.4941,221.183 l45.4545,0 22.7273,-13.1215 -22.7272,-13.1215 -45.4544,0 -22.7272,13.1216 z" id="hex_7_5" />
        <path
            style="stroke:#aaa;stroke-width:1;fill:#ffffff"
            class="hex-hexagon" d="M361.8589,243.9102 l45.4545,0 22.7273,-13.1215 -22.7272,-13.1215 -45.4544,0 -22.7272,13.1216 z" id="hex_6_5" />
        <path
            style="stroke:#aaa;stroke-width:1;fill:#ffffff"
            class="hex-hexagon" d="M401.2237,266.6375 l45.4545,0 22.7273,-13.1215 -22.7272,-13.1215 -45.4544,0 -22.7272,13.1216 z" id="hex_5_5" />
        <path
            style="stroke:#aaa;stroke-width:1;fill:#ffffff"
            class="hex-hexagon" d="M440.5885,289.3648 l45.4545,0 22.7273,-13.1215 -22.7272,-13.1215 -45.4544,0 -22.7272,13.1216 z" id="hex_4_5" />
        <path
            style="stroke:#aaa;stroke-width:1;fill:#ffffff"
            class="hex-hexagon" d="M479.9533,312.0921 l45.4545,0 22.7273,-13.1215 -22.7272,-13.1215 -45.4544,0 -22.7272,13.1216 z" id="hex_3_5" />
        <path
            style="stroke:#aaa;stroke-width:1;fill:#ffffff"
            class="hex-hexagon" d="M519.318,334.8193 l45.4545,0 22.7273,-13.1215 -22.7272,-13.1215 -45.4544,0 -22.7272,13.1216 z" id="hex_2_5" />
        <path
            style="stroke:#aaa;stroke-width:1;fill:#ffffff"
            class="hex-hexagon" d="M558.6828,357.5466 l45.4545,0 22.7273,-13.1215 -22.7272,-13.1215 -45.4544,0 -22.7272,13.1216 z" id="hex_1_5" />
        <path
            style="stroke:#aaa;stroke-width:1;fill:#ffffff"
            class="hex-hexagon" d="M204.3997,153.0012 l45.4545,0 22.7273,-13.1215 -22.7272,-13.1215 -45.4544,0 -22.7272,13.1216 z" id="hex_11_6" />
        <path
            style="stroke:#aaa;stroke-width:1;fill:#ffffff"
            class="hex-hexagon" d="M243.7645,175.7284 l45.4545,0 22.7273,-13.1215 -22.7272,-13.1215 -45.4544,0 -22.7272,13.1216 z" id="hex_10_6" />
        <path
            style="stroke:#aaa;stroke-width:1;fill:#ffffff"
            class="hex-hexagon" d="M283.1293,198.4557 l45.4545,0 22.7273,-13.1215 -22.7272,-13.1215 -45.4544,0 -22.7272,13.1216 z" id="hex_9_6" />
        <path
            style="stroke:#aaa;stroke-width:1;fill:#ffffff"
            class="hex-hexagon" d="M322.4941,221.183 l45.4545,0 22.7273,-13.1215 -22.7272,-13.1215 -45.4544,0 -22.7272,13.1216 z" id="hex_8_6" />
        <path
            style="stroke:#aaa;stroke-width:1;fill:#ffffff"
            class="hex-hexagon" d="M361.8589,243.9102 l45.4545,0 22.7273,-13.1215 -22.7272,-13.1215 -45.4544,0 -22.7272,13.1216 z" id="hex_7_6" />
        <path
            style="stroke:#aaa;stroke-width:1;fill:#ffffff"
            class="hex-hexagon" d="M401.2237,266.6375 l45.4545,0 22.7273,-13.1215 -22.7272,-13.1215 -45.4544,0 -22.7272,13.1216 z" id="hex_6_6" />
        <path
            style="stroke:#aaa;stroke-width:1;fill:#ffffff"
            class="hex-hexagon" d="M440.5885,289.3648 l45.4545,0 22.7273,-13.1215 -22.7272,-13.1215 -45.4544,0 -22.7272,13.1216 z" id="hex_5_6" />
        <path
            style="stroke:#aaa;stroke-width:1;fill:#ffffff"
            class="hex-hexagon" d="M479.9533,312.0921 l45.4545,0 22.7273,-13.1215 -22.7272,-13.1215 -45.4544,0 -22.7272,13.1216 z" id="hex_4_6" />
        <path
            style="stroke:#aaa;stroke-width:1;fill:#ffffff"
            class="hex-hexagon" d="M519.318,334.8193 l45.4545,0 22.7273,-13.1215 -22.7272,-13.1215 -45.4544,0 -22.7272,13.1216 z" id="hex_3_6" />
        <path
            style="stroke:#aaa;stroke-width:1;fill:#ffffff"
            class="hex-hexagon" d="M558.6828,357.5466 l45.4545,0 22.7273,-13.1215 -22.7272,-13.1215 -45.4544,0 -22.7272,13.1216 z" id="hex_2_6" />
        <path
            style="stroke:#aaa;stroke-width:1;fill:#ffffff"
            class="hex-hexagon" d="M598.0476,380.2739 l45.4545,0 22.7273,-13.1215 -22.7272,-13.1215 -45.4544,0 -22.7272,13.1216 z" id="hex_1_6" />
        <path
            style="stroke:#aaa;stroke-width:1;fill:#ffffff"
            class="hex-hexagon" d="M243.7645,175.7284 l45.4545,0 22.7273,-13.1215 -22.7272,-13.1215 -45.4544,0 -22.7272,13.1216 z" id="hex_11_7" />
        <path
            style="stroke:#aaa;stroke-width:1;fill:#ffffff"
            class="hex-hexagon" d="M283.1293,198.4557 l45.4545,0 22.7273,-13.1215 -22.7272,-13.1215 -45.4544,0 -22.7272,13.1216 z" id="hex_10_7" />
        <path
            style="stroke:#aaa;stroke-width:1;fill:#ffffff"
            class="hex-hexagon" d="M322.4941,221.183 l45.4545,0 22.7273,-13.1215 -22.7272,-13.1215 -45.4544,0 -22.7272,13.1216 z" id="hex_9_7" />
        <path
            style="stroke:#aaa;stroke-width:1;fill:#ffffff"
            class="hex-hexagon" d="M361.8589,243.9102 l45.4545,0 22.7273,-13.1215 -22.7272,-13.1215 -45.4544,0 -22.7272,13.1216 z" id="hex_8_7" />
        <path
            style="stroke:#aaa;stroke-width:1;fill:#ffffff"
            class="hex-hexagon" d="M401.2237,266.6375 l45.4545,0 22.7273,-13.1215 -22.7272,-13.1215 -45.4544,0 -22.7272,13.1216 z" id="hex_7_7" />
        <path
            style="stroke:#aaa;stroke-width:1;fill:#ffffff"
            class="hex-hexagon" d="M440.5885,289.3648 l45.4545,0 22.7273,-13.1215 -22.7272,-13.1215 -45.4544,0 -22.7272,13.1216 z" id="hex_6_7" />
        <path
            style="stroke:#aaa;stroke-width:1;fill:#ffffff"
            class="hex-hexagon" d="M479.9533,312.0921 l45.4545,0 22.7273,-13.1215 -22.7272,-13.1215 -45.4544,0 -22.7272,13.1216 z" id="hex_5_7" />
        <path
            style="stroke:#aaa;stroke-width:1;fill:#ffffff"
            class="hex-hexagon" d="M519.318,334.8193 l45.4545,0 22.7273,-13.1215 -22.7272,-13.1215 -45.4544,0 -22.7272,13.1216 z" id="hex_4_7" />
        <path
            style="stroke:#aaa;stroke-width:1;fill:#ffffff"
            class="hex-hexagon" d="M558.6828,357.5466 l45.4545,0 22.7273,-13.1215 -22.7272,-13.1215 -45.4544,0 -22.7272,13.1216 z" id="hex_3_7" />
        <path
            style="stroke:#aaa;stroke-width:1;fill:#ffffff"
            class="hex-hexagon" d="M598.0476,380.2739 l45.4545,0 22.7273,-13.1215 -22.7272,-13.1215 -45.4544,0 -22.7272,13.1216 z" id="hex_2_7" />
        <path
            style="stroke:#aaa;stroke-width:1;fill:#ffffff"
            class="hex-hexagon" d="M637.4124,403.0012 l45.4545,0 22.7273,-13.1215 -22.7272,-13.1215 -45.4544,0 -22.7272,13.1216 z" id="hex_1_7" />
        <path
            style="stroke:#aaa;stroke-width:1;fill:#ffffff"
            class="hex-hexagon" d="M283.1293,198.4557 l45.4545,0 22.7273,-13.1215 -22.7272,-13.1215 -45.4544,0 -22.7272,13.1216 z" id="hex_11_8" />
        <path
            style="stroke:#aaa;stroke-width:1;fill:#ffffff"
            class="hex-hexagon" d="M322.4941,221.183 l45.4545,0 22.7273,-13.1215 -22.7272,-13.1215 -45.4544,0 -22.7272,13.1216 z" id="hex_10_8" />
        <path
            style="stroke:#aaa;stroke-width:1;fill:#ffffff"
            class="hex-hexagon" d="M361.8589,243.9102 l45.4545,0 22.7273,-13.1215 -22.7272,-13.1215 -45.4544,0 -22.7272,13.1216 z" id="hex_9_8" />
        <path
            style="stroke:#aaa;stroke-width:1;fill:#ffffff"
            class="hex-hexagon" d="M401.2237,266.6375 l45.4545,0 22.7273,-13.1215 -22.7272,-13.1215 -45.4544,0 -22.7272,13.1216 z" id="hex_8_8" />
        <path
            style="stroke:#aaa;stroke-width:1;fill:#ffffff"
            class="hex-hexagon" d="M440.5885,289.3648 l45.4545,0 22.7273,-13.1215 -22.7272,-13.1215 -45.4544,0 -22.7272,13.1216 z" id="hex_7_8" />
        <path
            style="stroke:#aaa;stroke-width:1;fill:#ffffff"
            class="hex-hexagon" d="M479.9533,312.0921 l45.4545,0 22.7273,-13.1215 -22.7272,-13.1215 -45.4544,0 -22.7272,13.1216 z" id="hex_6_8" />
        <path
            style="stroke:#aaa;stroke-width:1;fill:#ffffff"
            class="hex-hexagon" d="M519.318,334.8193 l45.4545,0 22.7273,-13.1215 -22.7272,-13.1215 -45.4544,0 -22.7272,13.1216 z" id="hex_5_8" />
        <path
            style="stroke:#aaa;stroke-width:1;fill:#ffffff"
            class="hex-hexagon" d="M558.6828,357.5466 l45.4545,0 22.7273,-13.1215 -22.7272,-13.1215 -45.4544,0 -22.7272,13.1216 z" id="hex_4_8" />
        <path
            style="stroke:#aaa;stroke-width:1;fill:#ffffff"
            class="hex-hexagon" d="M598.0476,380.2739 l45.4545,0 22.7273,-13.1215 -22.7272,-13.1215 -45.4544,0 -22.7272,13.1216 z" id="hex_3_8" />
        <path
            style="stroke:#aaa;stroke-width:1;fill:#ffffff"
            class="hex-hexagon" d="M637.4124,403.0012 l45.4545,0 22.7273,-13.1215 -22.7272,-13.1215 -45.4544,0 -22.7272,13.1216 z" id="hex_2_8" />
        <path
            style="stroke:#aaa;stroke-width:1;fill:#ffffff"
            class="hex-hexagon" d="M676.7772,425.7284 l45.4545,0 22.7273,-13.1215 -22.7272,-13.1215 -45.4544,0 -22.7272,13.1216 z" id="hex_1_8" />
        <path
            style="stroke:#aaa;stroke-width:1;fill:#ffffff"
            class="hex-hexagon" d="M322.4941,221.183 l45.4545,0 22.7273,-13.1215 -22.7272,-13.1215 -45.4544,0 -22.7272,13.1216 z" id="hex_11_9" />
        <path
            style="stroke:#aaa;stroke-width:1;fill:#ffffff"
            class="hex-hexagon" d="M361.8589,243.9102 l45.4545,0 22.7273,-13.1215 -22.7272,-13.1215 -45.4544,0 -22.7272,13.1216 z" id="hex_10_9" />
        <path
            style="stroke:#aaa;stroke-width:1;fill:#ffffff"
            class="hex-hexagon" d="M401.2237,266.6375 l45.4545,0 22.7273,-13.1215 -22.7272,-13.1215 -45.4544,0 -22.7272,13.1216 z" id="hex_9_9" />
        <path
            style="stroke:#aaa;stroke-width:1;fill:#ffffff"
            class="hex-hexagon" d="M440.5885,289.3648 l45.4545,0 22.7273,-13.1215 -22.7272,-13.1215 -45.4544,0 -22.7272,13.1216 z" id="hex_8_9" />
        <path
            style="stroke:#aaa;stroke-width:1;fill:#ffffff"
            class="hex-hexagon" d="M479.9533,312.0921 l45.4545,0 22.7273,-13.1215 -22.7272,-13.1215 -45.4544,0 -22.7272,13.1216 z" id="hex_7_9" />
        <path
            style="stroke:#aaa;stroke-width:1;fill:#ffffff"
            class="hex-hexagon" d="M519.318,334.8193 l45.4545,0 22.7273,-13.1215 -22.7272,-13.1215 -45.4544,0 -22.7272,13.1216 z" id="hex_6_9" />
        <path
            style="stroke:#aaa;stroke-width:1;fill:#ffffff"
            class="hex-hexagon" d="M558.6828,357.5466 l45.4545,0 22.7273,-13.1215 -22.7272,-13.1215 -45.4544,0 -22.7272,13.1216 z" id="hex_5_9" />
        <path
            style="stroke:#aaa;stroke-width:1;fill:#ffffff"
            class="hex-hexagon" d="M598.0476,380.2739 l45.4545,0 22.7273,-13.1215 -22.7272,-13.1215 -45.4544,0 -22.7272,13.1216 z" id="hex_4_9" />
        <path
            style="stroke:#aaa;stroke-width:1;fill:#ffffff"
            class="hex-hexagon" d="M637.4124,403.0012 l45.4545,0 22.7273,-13.1215 -22.7272,-13.1215 -45.4544,0 -22.7272,13.1216 z" id="hex_3_9" />
        <path
            style="stroke:#aaa;stroke-width:1;fill:#ffffff"
            class="hex-hexagon" d="M676.7772,425.7284 l45.4545,0 22.7273,-13.1215 -22.7272,-13.1215 -45.4544,0 -22.7272,13.1216 z" id="hex_2_9" />
        <path
            style="stroke:#aaa;stroke-width:1;fill:#ffffff"
            class="hex-hexagon" d="M716.142,448.4557 l45.4545,0 22.7273,-13.1215 -22.7272,-13.1215 -45.4544,0 -22.7272,13.1216 z" id="hex_1_9" />
        <path
            style="stroke:#aaa;stroke-width:1;fill:#ffffff"
            class="hex-hexagon" d="M361.8589,243.9102 l45.4545,0 22.7273,-13.1215 -22.7272,-13.1215 -45.4544,0 -22.7272,13.1216 z" id="hex_11_10" />
        <path
            style="stroke:#aaa;stroke-width:1;fill:#ffffff"
            class="hex-hexagon" d="M401.2237,266.6375 l45.4545,0 22.7273,-13.1215 -22.7272,-13.1215 -45.4544,0 -22.7272,13.1216 z" id="hex_10_10" />
        <path
            style="stroke:#aaa;stroke-width:1;fill:#ffffff"
            class="hex-hexagon" d="M440.5885,289.3648 l45.4545,0 22.7273,-13.1215 -22.7272,-13.1215 -45.4544,0 -22.7272,13.1216 z" id="hex_9_10" />
        <path
            style="stroke:#aaa;stroke-width:1;fill:#ffffff"
            class="hex-hexagon" d="M479.9533,312.0921 l45.4545,0 22.7273,-13.1215 -22.7272,-13.1215 -45.4544,0 -22.7272,13.1216 z" id="hex_8_10" />
        <path
            style="stroke:#aaa;stroke-width:1;fill:#ffffff"
            class="hex-hexagon" d="M519.318,334.8193 l45.4545,0 22.7273,-13.1215 -22.7272,-13.1215 -45.4544,0 -22.7272,13.1216 z" id="hex_7_10" />
        <path
            style="stroke:#aaa;stroke-width:1;fill:#ffffff"
            class="hex-hexagon" d="M558.6828,357.5466 l45.4545,0 22.7273,-13.1215 -22.7272,-13.1215 -45.4544,0 -22.7272,13.1216 z" id="hex_6_10" />
        <path
            style="stroke:#aaa;stroke-width:1;fill:#ffffff"
            class="hex-hexagon" d="M598.0476,380.2739 l45.4545,0 22.7273,-13.1215 -22.7272,-13.1215 -45.4544,0 -22.7272,13.1216 z" id="hex_5_10" />
        <path
            style="stroke:#aaa;stroke-width:1;fill:#ffffff"
            class="hex-hexagon" d="M637.4124,403.0012 l45.4545,0 22.7273,-13.1215 -22.7272,-13.1215 -45.4544,0 -22.7272,13.1216 z" id="hex_4_10" />
        <path
            style="stroke:#aaa;stroke-width:1;fill:#ffffff"
            class="hex-hexagon" d="M676.7772,425.7284 l45.4545,0 22.7273,-13.1215 -22.7272,-13.1215 -45.4544,0 -22.7272,13.1216 z" id="hex_3_10" />
        <path
            style="stroke:#aaa;stroke-width:1;fill:#ffffff"
            class="hex-hexagon" d="M716.142,448.4557 l45.4545,0 22.7273,-13.1215 -22.7272,-13.1215 -45.4544,0 -22.7272,13.1216 z" id="hex_2_10" />
        <path
            style="stroke:#aaa;stroke-width:1;fill:#ffffff"
            class="hex-hexagon" d="M755.5068,471.183 l45.4545,0 22.7273,-13.1215 -22.7272,-13.1215 -45.4544,0 -22.7272,13.1216 z" id="hex_1_10" />
        <path
            style="stroke:#aaa;stroke-width:1;fill:#ffffff"
            class="hex-hexagon" d="M401.2237,266.6375 l45.4545,0 22.7273,-13.1215 -22.7272,-13.1215 -45.4544,0 -22.7272,13.1216 z" id="hex_11_11" />
        <path
            style="stroke:#aaa;stroke-width:1;fill:#ffffff"
            class="hex-hexagon" d="M440.5885,289.3648 l45.4545,0 22.7273,-13.1215 -22.7272,-13.1215 -45.4544,0 -22.7272,13.1216 z" id="hex_10_11" />
        <path
            style="stroke:#aaa;stroke-width:1;fill:#ffffff"
            class="hex-hexagon" d="M479.9533,312.0921 l45.4545,0 22.7273,-13.1215 -22.7272,-13.1215 -45.4544,0 -22.7272,13.1216 z" id="hex_9_11" />
        <path
            style="stroke:#aaa;stroke-width:1;fill:#ffffff"
            class="hex-hexagon" d="M519.318,334.8193 l45.4545,0 22.7273,-13.1215 -22.7272,-13.1215 -45.4544,0 -22.7272,13.1216 z" id="hex_8_11" />
        <path
            style="stroke:#aaa;stroke-width:1;fill:#ffffff"
            class="hex-hexagon" d="M558.6828,357.5466 l45.4545,0 22.7273,-13.1215 -22.7272,-13.1215 -45.4544,0 -22.7272,13.1216 z" id="hex_7_11" />
        <path
            style="stroke:#aaa;stroke-width:1;fill:#ffffff"
            class="hex-hexagon" d="M598.0476,380.2739 l45.4545,0 22.7273,-13.1215 -22.7272,-13.1215 -45.4544,0 -22.7272,13.1216 z" id="hex_6_11" />
        <path
            style="stroke:#aaa;stroke-width:1;fill:#ffffff"
            class="hex-hexagon" d="M637.4124,403.0012 l45.4545,0 22.7273,-13.1215 -22.7272,-13.1215 -45.4544,0 -22.7272,13.1216 z" id="hex_5_11" />
        <path
            style="stroke:#aaa;stroke-width:1;fill:#ffffff"
            class="hex-hexagon" d="M676.7772,425.7284 l45.4545,0 22.7273,-13.1215 -22.7272,-13.1215 -45.4544,0 -22.7272,13.1216 z" id="hex_4_11" />
        <path
            style="stroke:#aaa;stroke-width:1;fill:#ffffff"
            class="hex-hexagon" d="M716.142,448.4557 l45.4545,0 22.7273,-13.1215 -22.7272,-13.1215 -45.4544,0 -22.7272,13.1216 z" id="hex_3_11" />
        <path
            style="stroke:#aaa;stroke-width:1;fill:#ffffff"
            class="hex-hexagon" d="M755.5068,471.183 l45.4545,0 22.7273,-13.1215 -22.7272,-13.1215 -45.4544,0 -22.7272,13.1216 z" id="hex_2_11" />
        <path
            style="stroke:#aaa;stroke-width:1;fill:#ffffff"
            class="hex-hexagon" d="M794.8716,493.9102 l45.4545,0 22.7273,-13.1215 -22.7272,-13.1215 -45.4544,0 -22.7272,13.1216 z" id="hex_1_11" />
    </g>
</svg>