<svg xmlns="http://www.w3.org/2000/svg" xmlns:xlink="http://www.w3.org/1999/xlink" version="1.1" viewBox="0 0 902.1098 520.8333" transform="rotate(0 460.076,265.625)" id="svg_root" width="100%" height="100%"><script type="text/javascript" xlink:href="jquery.min.js"></script><script type="text/javascript" xlink:href="svg.min.js"></script><script type="text/javascript" xlink:href="app.js"></script><g id="svg_g"><path d="M460.076,265.625 L0,260.4167 451.0549,0 z" style="fill:#ff0000" id="hex_grid_edge_left_top" class="hex-grid-edge-left-top" /><path d="M460.076,265.625 L902.1098,260.4167 451.0549,520.8333 z" style="fill:#ff0000" id="hex_grid_edge_right_bottom" class="hex-grid-edge-right-bottom" /><path d="M460.076,265.625 L0,260.4167 451.0549,520.8333 z" style="fill:#0000ff" id="hex_grid_edge_left_bottom" class="hex-grid-edge-left-bottom" /><path d="M460.076,265.625 L902.1098,260.4167 451.0549,0 z" style="fill:#0000ff" id="hex_grid_edge_right_top" class="hex-grid-edge-right-top" /><path d="M433.0127,72.9167 l36.0844,0 18.0422,-31.2499 -18.0421,-31.2499 -36.0843,0 -18.0421,31.25 z" style="stroke:#aaa;stroke-width:1;fill:#ffffff" id="hex_8_1" class="hex-hexagon" /><path d="M378.8861,104.1667 l36.0844,0 18.0422,-31.2499 -18.0421,-31.2499 -36.0843,0 -18.0421,31.25 z" style="stroke:#aaa;stroke-width:1;fill:#ffffff" id="hex_7_1" class="hex-hexagon" /><path d="M324.7595,135.4167 l36.0844,0 18.0422,-31.2499 -18.0421,-31.2499 -36.0843,0 -18.0421,31.25 z" style="stroke:#aaa;stroke-width:1;fill:#ffffff" id="hex_6_1" class="hex-hexagon" /><path d="M270.6329,166.6667 l36.0844,0 18.0422,-31.2499 -18.0421,-31.2499 -36.0843,0 -18.0421,31.25 z" style="stroke:#aaa;stroke-width:1;fill:#ffffff" id="hex_5_1" class="hex-hexagon" /><path d="M216.5064,197.9167 l36.0844,0 18.0422,-31.2499 -18.0421,-31.2499 -36.0843,0 -18.0421,31.25 z" style="stroke:#aaa;stroke-width:1;fill:#ffffff" id="hex_4_1" class="hex-hexagon" /><path d="M162.3798,229.1667 l36.0844,0 18.0422,-31.2499 -18.0421,-31.2499 -36.0843,0 -18.0421,31.25 z" style="stroke:#aaa;stroke-width:1;fill:#ffffff" id="hex_3_1" class="hex-hexagon" /><path d="M108.2532,260.4167 l36.0844,0 18.0422,-31.2499 -18.0421,-31.2499 -36.0843,0 -18.0421,31.25 z" style="stroke:#aaa;stroke-width:1;fill:#ffffff" id="hex_2_1" class="hex-hexagon" /><path d="M54.1266,291.6667 l36.0844,0 18.0422,-31.2499 -18.0421,-31.2499 -36.0843,0 -18.0421,31.25 z" style="stroke:#aaa;stroke-width:1;fill:#ffffff" id="hex_1_1" class="hex-hexagon" /><path d="M487.1393,104.1667 l36.0844,0 18.0422,-31.2499 -18.0421,-31.2499 -36.0843,0 -18.0421,31.25 z" style="stroke:#aaa;stroke-width:1;fill:#ffffff" id="hex_8_2" class="hex-hexagon" /><path d="M433.0127,135.4167 l36.0844,0 18.0422,-31.2499 -18.0421,-31.2499 -36.0843,0 -18.0421,31.25 z" style="stroke:#aaa;stroke-width:1;fill:#ffffff" id="hex_7_2" class="hex-hexagon" /><path d="M378.8861,166.6667 l36.0844,0 18.0422,-31.2499 -18.0421,-31.2499 -36.0843,0 -18.0421,31.25 z" style="stroke:#aaa;stroke-width:1;fill:#ffffff" id="hex_6_2" class="hex-hexagon" /><path d="M324.7595,197.9167 l36.0844,0 18.0422,-31.2499 -18.0421,-31.2499 -36.0843,0 -18.0421,31.25 z" style="stroke:#aaa;stroke-width:1;fill:#ffffff" id="hex_5_2" class="hex-hexagon" /><path d="M270.6329,229.1667 l36.0844,0 18.0422,-31.2499 -18.0421,-31.2499 -36.0843,0 -18.0421,31.25 z" style="stroke:#aaa;stroke-width:1;fill:#ffffff" id="hex_4_2" class="hex-hexagon" /><path d="M216.5064,260.4167 l36.0844,0 18.0422,-31.2499 -18.0421,-31.2499 -36.0843,0 -18.0421,31.25 z" style="stroke:#aaa;stroke-width:1;fill:#ffffff" id="hex_3_2" class="hex-hexagon" /><path d="M162.3798,291.6667 l36.0844,0 18.0422,-31.2499 -18.0421,-31.2499 -36.0843,0 -18.0421,31.25 z" style="stroke:#aaa;stroke-width:1;fill:#ffffff" id="hex_2_2" class="hex-hexagon" /><path d="M108.2532,322.9167 l36.0844,0 18.0422,-31.2499 -18.0421,-31.2499 -36.0843,0 -18.0421,31.25 z" style="stroke:#aaa;stroke-width:1;fill:#ffffff" id="hex_1_2" class="hex-hexagon" /><path d="M541.2659,135.4167 l36.0844,0 18.0422,-31.2499 -18.0421,-31.2499 -36.0843,0 -18.0421,31.25 z" style="stroke:#aaa;stroke-width:1;fill:#ffffff" id="hex_8_3" class="hex-hexagon" /><path d="M487.1393,166.6667 l36.0844,0 18.0422,-31.2499 -18.0421,-31.2499 -36.0843,0 -18.0421,31.25 z" style="stroke:#aaa;stroke-width:1;fill:#ffffff" id="hex_7_3" class="hex-hexagon" /><path d="M433.0127,197.9167 l36.0844,0 18.0422,-31.2499 -18.0421,-31.2499 -36.0843,0 -18.0421,31.25 z" style="stroke:#aaa;stroke-width:1;fill:#ffffff" id="hex_6_3" class="hex-hexagon" /><path d="M378.8861,229.1667 l36.0844,0 18.0422,-31.2499 -18.0421,-31.2499 -36.0843,0 -18.0421,31.25 z" style="stroke:#aaa;stroke-width:1;fill:#ffffff" id="hex_5_3" class="hex-hexagon" /><path d="M324.7595,260.4167 l36.0844,0 18.0422,-31.2499 -18.0421,-31.2499 -36.0843,0 -18.0421,31.25 z" style="stroke:#aaa;stroke-width:1;fill:#ffffff" id="hex_4_3" class="hex-hexagon" /><path d="M270.6329,291.6667 l36.0844,0 18.0422,-31.2499 -18.0421,-31.2499 -36.0843,0 -18.0421,31.25 z" style="stroke:#aaa;stroke-width:1;fill:#ffffff" id="hex_3_3" class="hex-hexagon" /><path d="M216.5064,322.9167 l36.0844,0 18.0422,-31.2499 -18.0421,-31.2499 -36.0843,0 -18.0421,31.25 z" style="stroke:#aaa;stroke-width:1;fill:#ffffff" id="hex_2_3" class="hex-hexagon" /><path d="M162.3798,354.1667 l36.0844,0 18.0422,-31.2499 -18.0421,-31.2499 -36.0843,0 -18.0421,31.25 z" style="stroke:#aaa;stroke-width:1;fill:#ffffff" id="hex_1_3" class="hex-hexagon" /><path d="M595.3925,166.6667 l36.0844,0 18.0422,-31.2499 -18.0421,-31.2499 -36.0843,0 -18.0421,31.25 z" style="stroke:#aaa;stroke-width:1;fill:#ffffff" id="hex_8_4" class="hex-hexagon" /><path d="M541.2659,197.9167 l36.0844,0 18.0422,-31.2499 -18.0421,-31.2499 -36.0843,0 -18.0421,31.25 z" style="stroke:#aaa;stroke-width:1;fill:#ffffff" id="hex_7_4" class="hex-hexagon" /><path d="M487.1393,229.1667 l36.0844,0 18.0422,-31.2499 -18.0421,-31.2499 -36.0843,0 -18.0421,31.25 z" style="stroke:#aaa;stroke-width:1;fill:#ffffff" id="hex_6_4" class="hex-hexagon" /><path d="M433.0127,260.4167 l36.0844,0 18.0422,-31.2499 -18.0421,-31.2499 -36.0843,0 -18.0421,31.25 z" style="stroke:#aaa;stroke-width:1;fill:#ffffff" id="hex_5_4" class="hex-hexagon" /><path d="M378.8861,291.6667 l36.0844,0 18.0422,-31.2499 -18.0421,-31.2499 -36.0843,0 -18.0421,31.25 z" style="stroke:#aaa;stroke-width:1;fill:#ffffff" id="hex_4_4" class="hex-hexagon" /><path d="M324.7595,322.9167 l36.0844,0 18.0422,-31.2499 -18.0421,-31.2499 -36.0843,0 -18.0421,31.25 z" style="stroke:#aaa;stroke-width:1;fill:#ffffff" id="hex_3_4" class="hex-hexagon" /><path d="M270.6329,354.1667 l36.0844,0 18.0422,-31.2499 -18.0421,-31.2499 -36.0843,0 -18.0421,31.25 z" style="stroke:#aaa;stroke-width:1;fill:#ffffff" id="hex_2_4" class="hex-hexagon" /><path d="M216.5064,385.4167 l36.0844,0 18.0422,-31.2499 -18.0421,-31.2499 -36.0843,0 -18.0421,31.25 z" style="stroke:#aaa;stroke-width:1;fill:#ffffff" id="hex_1_4" class="hex-hexagon" /><path d="M649.5191,197.9167 l36.0844,0 18.0422,-31.2499 -18.0421,-31.2499 -36.0843,0 -18.0421,31.25 z" style="stroke:#aaa;stroke-width:1;fill:#ffffff" id="hex_8_5" class="hex-hexagon" /><path d="M595.3925,229.1667 l36.0844,0 18.0422,-31.2499 -18.0421,-31.2499 -36.0843,0 -18.0421,31.25 z" style="stroke:#aaa;stroke-width:1;fill:#ffffff" id="hex_7_5" class="hex-hexagon" /><path d="M541.2659,260.4167 l36.0844,0 18.0422,-31.2499 -18.0421,-31.2499 -36.0843,0 -18.0421,31.25 z" style="stroke:#aaa;stroke-width:1;fill:#ffffff" id="hex_6_5" class="hex-hexagon" /><path d="M487.1393,291.6667 l36.0844,0 18.0422,-31.2499 -18.0421,-31.2499 -36.0843,0 -18.0421,31.25 z" style="stroke:#aaa;stroke-width:1;fill:#ffffff" id="hex_5_5" class="hex-hexagon" /><path d="M433.0127,322.9167 l36.0844,0 18.0422,-31.2499 -18.0421,-31.2499 -36.0843,0 -18.0421,31.25 z" style="stroke:#aaa;stroke-width:1;fill:#ffffff" id="hex_4_5" class="hex-hexagon" /><path d="M378.8861,354.1667 l36.0844,0 18.0422,-31.2499 -18.0421,-31.2499 -36.0843,0 -18.0421,31.25 z" style="stroke:#aaa;stroke-width:1;fill:#ffffff" id="hex_3_5" class="hex-hexagon" /><path d="M324.7595,385.4167 l36.0844,0 18.0422,-31.2499 -18.0421,-31.2499 -36.0843,0 -18.0421,31.25 z" style="stroke:#aaa;stroke-width:1;fill:#ffffff" id="hex_2_5" class="hex-hexagon" /><path d="M270.6329,416.6667 l36.0844,0 18.0422,-31.2499 -18.0421,-31.2499 -36.0843,0 -18.0421,31.25 z" style="stroke:#aaa;stroke-width:1;fill:#ffffff" id="hex_1_5" class="hex-hexagon" /><path d="M703.6456,229.1667 l36.0844,0 18.0422,-31.2499 -18.0421,-31.2499 -36.0843,0 -18.0421,31.25 z" style="stroke:#aaa;stroke-width:1;fill:#ffffff" id="hex_8_6" class="hex-hexagon" /><path d="M649.5191,260.4167 l36.0844,0 18.0422,-31.2499 -18.0421,-31.2499 -36.0843,0 -18.0421,31.25 z" style="stroke:#aaa;stroke-width:1;fill:#ffffff" id="hex_7_6" class="hex-hexagon" /><path d="M595.3925,291.6667 l36.0844,0 18.0422,-31.2499 -18.0421,-31.2499 -36.0843,0 -18.0421,31.25 z" style="stroke:#aaa;stroke-width:1;fill:#ffffff" id="hex_6_6" class="hex-hexagon" /><path d="M541.2659,322.9167 l36.0844,0 18.0422,-31.2499 -18.0421,-31.2499 -36.0843,0 -18.0421,31.25 z" style="stroke:#aaa;stroke-width:1;fill:#ffffff" id="hex_5_6" class="hex-hexagon" /><path d="M487.1393,354.1667 l36.0844,0 18.0422,-31.2499 -18.0421,-31.2499 -36.0843,0 -18.0421,31.25 z" style="stroke:#aaa;stroke-width:1;fill:#ffffff" id="hex_4_6" class="hex-hexagon" /><path d="M433.0127,385.4167 l36.0844,0 18.0422,-31.2499 -18.0421,-31.2499 -36.0843,0 -18.0421,31.25 z" style="stroke:#aaa;stroke-width:1;fill:#ffffff" id="hex_3_6" class="hex-hexagon" /><path d="M378.8861,416.6667 l36.0844,0 18.0422,-31.2499 -18.0421,-31.2499 -36.0843,0 -18.0421,31.25 z" style="stroke:#aaa;stroke-width:1;fill:#ffffff" id="hex_2_6" class="hex-hexagon" /><path d="M324.7595,447.9167 l36.0844,0 18.0422,-31.2499 -18.0421,-31.2499 -36.0843,0 -18.0421,31.25 z" style="stroke:#aaa;stroke-width:1;fill:#ffffff" id="hex_1_6" class="hex-hexagon" /><path d="M757.7722,260.4167 l36.0844,0 18.0422,-31.2499 -18.0421,-31.2499 -36.0843,0 -18.0421,31.25 z" style="stroke:#aaa;stroke-width:1;fill:#ffffff" id="hex_8_7" class="hex-hexagon" /><path d="M703.6456,291.6667 l36.0844,0 18.0422,-31.2499 -18.0421,-31.2499 -36.0843,0 -18.0421,31.25 z" style="stroke:#aaa;stroke-width:1;fill:#ffffff" id="hex_7_7" class="hex-hexagon" /><path d="M649.5191,322.9167 l36.0844,0 18.0422,-31.2499 -18.0421,-31.2499 -36.0843,0 -18.0421,31.25 z" style="stroke:#aaa;stroke-width:1;fill:#ffffff" id="hex_6_7" class="hex-hexagon" /><path d="M595.3925,354.1667 l36.0844,0 18.0422,-31.2499 -18.0421,-31.2499 -36.0843,0 -18.0421,31.25 z" style="stroke:#aaa;stroke-width:1;fill:#ffffff" id="hex_5_7" class="hex-hexagon" /><path d="M541.2659,385.4167 l36.0844,0 18.0422,-31.2499 -18.0421,-31.2499 -36.0843,0 -18.0421,31.25 z" style="stroke:#aaa;stroke-width:1;fill:#ffffff" id="hex_4_7" class="hex-hexagon" /><path d="M487.1393,416.6667 l36.0844,0 18.0422,-31.2499 -18.0421,-31.2499 -36.0843,0 -18.0421,31.25 z" style="stroke:#aaa;stroke-width:1;fill:#ffffff" id="hex_3_7" class="hex-hexagon" /><path d="M433.0127,447.9167 l36.0844,0 18.0422,-31.2499 -18.0421,-31.2499 -36.0843,0 -18.0421,31.25 z" style="stroke:#aaa;stroke-width:1;fill:#ffffff" id="hex_2_7" class="hex-hexagon" /><path d="M378.8861,479.1667 l36.0844,0 18.0422,-31.2499 -18.0421,-31.2499 -36.0843,0 -18.0421,31.25 z" style="stroke:#aaa;stroke-width:1;fill:#ffffff" id="hex_1_7" class="hex-hexagon" /><path d="M811.8988,291.6667 l36.0844,0 18.0422,-31.2499 -18.0421,-31.2499 -36.0843,0 -18.0421,31.25 z" style="stroke:#aaa;stroke-width:1;fill:#ffffff" id="hex_8_8" class="hex-hexagon" /><path d="M757.7722,322.9167 l36.0844,0 18.0422,-31.2499 -18.0421,-31.2499 -36.0843,0 -18.0421,31.25 z" style="stroke:#aaa;stroke-width:1;fill:#ffffff" id="hex_7_8" class="hex-hexagon" /><path d="M703.6456,354.1667 l36.0844,0 18.0422,-31.2499 -18.0421,-31.2499 -36.0843,0 -18.0421,31.25 z" style="stroke:#aaa;stroke-width:1;fill:#ffffff" id="hex_6_8" class="hex-hexagon" /><path d="M649.5191,385.4167 l36.0844,0 18.0422,-31.2499 -18.0421,-31.2499 -36.0843,0 -18.0421,31.25 z" style="stroke:#aaa;stroke-width:1;fill:#ffffff" id="hex_5_8" class="hex-hexagon" /><path d="M595.3925,416.6667 l36.0844,0 18.0422,-31.2499 -18.0421,-31.2499 -36.0843,0 -18.0421,31.25 z" style="stroke:#aaa;stroke-width:1;fill:#ffffff" id="hex_4_8" class="hex-hexagon" /><path d="M541.2659,447.9167 l36.0844,0 18.0422,-31.2499 -18.0421,-31.2499 -36.0843,0 -18.0421,31.25 z" style="stroke:#aaa;stroke-width:1;fill:#ffffff" id="hex_3_8" class="hex-hexagon" /><path d="M487.1393,479.1667 l36.0844,0 18.0422,-31.2499 -18.0421,-31.2499 -36.0843,0 -18.0421,31.25 z" style="stroke:#aaa;stroke-width:1;fill:#ffffff" id="hex_2_8" class="hex-hexagon" /><path d="M433.0127,510.4167 l36.0844,0 18.0422,-31.2499 -18.0421,-31.2499 -36.0843,0 -18.0421,31.25 z" style="stroke:#aaa;stroke-width:1;fill:#ffffff" id="hex_1_8" class="hex-hexagon" /></g></svg>